<?xml version="1.0" encoding="UTF-8"?>
<svg id="_Слой_2" data-name="Слой 2" xmlns="http://www.w3.org/2000/svg" xmlns:xlink="http://www.w3.org/1999/xlink" viewBox="0 0 988.2 678.49">
  <defs>
    <style>
      .cls-1 {
        fill: url(#_Безымянный_градиент_5-2);
      }

      .cls-1, .cls-2, .cls-3, .cls-4, .cls-5, .cls-6, .cls-7, .cls-8, .cls-9, .cls-10, .cls-11, .cls-12, .cls-13, .cls-14, .cls-15, .cls-16, .cls-17, .cls-18, .cls-19, .cls-20, .cls-21, .cls-22, .cls-23, .cls-24, .cls-25, .cls-26, .cls-27, .cls-28, .cls-29, .cls-30, .cls-31, .cls-32, .cls-33, .cls-34, .cls-35, .cls-36, .cls-37, .cls-38, .cls-39, .cls-40, .cls-41, .cls-42, .cls-43, .cls-44, .cls-45 {
        stroke-width: 0px;
      }

      .cls-2 {
        fill: #999;
      }

      .cls-3 {
        fill: rgba(196, 196, 196, .2);
      }

      .cls-4 {
        fill: url(#_Безымянный_градиент_14-2);
      }

      .cls-5 {
        fill: url(#_Безымянный_градиент_3-2);
      }

      .cls-6 {
        fill: url(#_Безымянный_градиент_3);
      }

      .cls-7 {
        fill: url(#_Безымянный_градиент_4);
      }

      .cls-8 {
        fill: url(#_Безымянный_градиент_4-4);
      }

      .cls-9 {
        fill: url(#_Безымянный_градиент_10);
      }

      .cls-9, .cls-24, .cls-36 {
        fill-opacity: .21;
      }

      .cls-46 {
        stroke: url(#_Безымянный_градиент_11-2);
        stroke-width: 66.52px;
      }

      .cls-46, .cls-20, .cls-47, .cls-48, .cls-49, .cls-50 {
        fill: none;
      }

      .cls-46, .cls-49, .cls-50 {
        stroke-linecap: round;
        stroke-linejoin: round;
      }

      .cls-10 {
        fill: url(#_Безымянный_градиент_10-4);
      }

      .cls-10, .cls-26, .cls-41 {
        fill-opacity: .13;
      }

      .cls-11 {
        fill: url(#_Безымянный_градиент_4-3);
      }

      .cls-51 {
        mask: url(#mask-2);
      }

      .cls-12, .cls-30, .cls-32, .cls-38, .cls-39 {
        fill-rule: evenodd;
      }

      .cls-13 {
        fill: url(#_Безымянный_градиент_8-6);
      }

      .cls-14 {
        fill: url(#_Безымянный_градиент_3-3);
      }

      .cls-15 {
        fill: url(#_Безымянный_градиент_8-3);
      }

      .cls-16 {
        fill: url(#_Безымянный_градиент_13);
        fill-opacity: .12;
      }

      .cls-18 {
        fill: url(#_Безымянный_градиент_3-6);
      }

      .cls-19 {
        fill: #323232;
      }

      .cls-52 {
        mask: url(#mask-3);
      }

      .cls-21 {
        fill: #141414;
      }

      .cls-22 {
        fill: url(#_Безымянный_градиент_3-5);
      }

      .cls-23 {
        fill: url(#_Безымянный_градиент_8);
      }

      .cls-24 {
        fill: url(#_Безымянный_градиент_10-5);
      }

      .cls-25 {
        fill: url(#_Безымянный_градиент_6-3);
      }

      .cls-26 {
        fill: url(#_Безымянный_градиент_10-6);
      }

      .cls-27 {
        fill: url(#_Безымянный_градиент_3-4);
      }

      .cls-47 {
        stroke-width: 3.22px;
      }

      .cls-47, .cls-48 {
        stroke: rgba(255, 255, 255, .9);
      }

      .cls-28 {
        fill: url(#_Безымянный_градиент_4-2);
      }

      .cls-53 {
        opacity: .17;
      }

      .cls-48 {
        stroke-width: 3px;
      }

      .cls-29 {
        fill: url(#_Безымянный_градиент_5);
      }

      .cls-30 {
        fill: url(#_Безымянный_градиент_6-2);
      }

      .cls-49 {
        stroke: url(#_Безымянный_градиент_11-3);
      }

      .cls-49, .cls-50 {
        stroke-width: 76.51px;
      }

      .cls-31 {
        fill: url(#_Безымянный_градиент_6);
      }

      .cls-54 {
        mask: url(#mask-4);
      }

      .cls-32 {
        fill: #474747;
      }

      .cls-33 {
        fill: #2c2c2c;
      }

      .cls-34 {
        fill: #272727;
      }

      .cls-35 {
        fill: url(#_Безымянный_градиент_14);
      }

      .cls-36 {
        fill: url(#_Безымянный_градиент_10-3);
      }

      .cls-37 {
        fill: #2d2c2c;
      }

      .cls-55 {
        clip-path: url(#clippath);
      }

      .cls-38 {
        fill: #4c4c4c;
      }

      .cls-50 {
        stroke: url(#_Безымянный_градиент_11);
      }

      .cls-39 {
        fill: #a9a8a8;
      }

      .cls-56 {
        mask: url(#mask-1);
      }

      .cls-57 {
        mask: url(#mask);
      }

      .cls-40 {
        fill: url(#_Безымянный_градиент_8-5);
      }

      .cls-41 {
        fill: url(#_Безымянный_градиент_10-2);
      }

      .cls-42 {
        fill: url(#_Безымянный_градиент_8-4);
      }

      .cls-43 {
        fill: url(#_Безымянный_градиент_8-7);
      }

      .cls-44 {
        fill: #131313;
      }

      .cls-45 {
        fill: url(#_Безымянный_градиент_8-2);
      }
    </style>
    <linearGradient id="_Безымянный_градиент_3" data-name="Безымянный градиент 3" x1="-1701.7" y1="533.99" x2="-1699.14" y2="572.82" gradientTransform="translate(-1469.73 1075.03) rotate(-176.49) skewX(2.18)" gradientUnits="userSpaceOnUse">
      <stop offset="0" stop-color="#3f3f3f"/>
      <stop offset="1" stop-color="#5c5c5c"/>
    </linearGradient>
    <linearGradient id="_Безымянный_градиент_4" data-name="Безымянный градиент 4" x1="-1713.58" y1="531.88" x2="-1727.61" y2="598.91" gradientTransform="translate(-1464.85 1148.78) rotate(-178.81) skewX(.78)" gradientUnits="userSpaceOnUse">
      <stop offset="0" stop-color="#3f3f3f"/>
      <stop offset="1" stop-color="#777676"/>
    </linearGradient>
    <linearGradient id="_Безымянный_градиент_3-2" data-name="Безымянный градиент 3" x1="-1800.87" y1="683.55" x2="-1798.66" y2="716.88" gradientTransform="translate(-1793.12 1156.14) rotate(-177.78) scale(1.02 .98) skewX(1.33)" xlink:href="#_Безымянный_градиент_3"/>
    <linearGradient id="_Безымянный_градиент_4-2" data-name="Безымянный градиент 4" x1="-1800.59" y1="701.05" x2="-1813.06" y2="759.11" gradientTransform="translate(-1800.75 1138.22) rotate(-176.62) scale(1.02 .98) skewX(2.1)" xlink:href="#_Безымянный_градиент_4"/>
    <linearGradient id="_Безымянный_градиент_5" data-name="Безымянный градиент 5" x1="194.47" y1="718.45" x2="346.61" y2="948.81" gradientTransform="translate(0 1313.51) scale(1 -1)" gradientUnits="userSpaceOnUse">
      <stop offset="0" stop-color="#262626"/>
      <stop offset=".63" stop-color="#545454"/>
      <stop offset="1" stop-color="#a8a8a8"/>
    </linearGradient>
    <linearGradient id="_Безымянный_градиент_6" data-name="Безымянный градиент 6" x1="275.64" y1="701.39" x2="165.31" y2="958.04" gradientTransform="translate(0 1313.51) scale(1 -1)" gradientUnits="userSpaceOnUse">
      <stop offset="0" stop-color="#cecbcb"/>
      <stop offset="1" stop-color="#fff"/>
    </linearGradient>
    <mask id="mask" x="0" y="356.55" width="498.02" height="316.1" maskUnits="userSpaceOnUse">
      <g id="mask0_86_5" data-name="mask0 86 5">
        <path class="cls-31" d="M476.3,610.65c3.46-6.59,2.5-12.42,2.6-17.7l-.2-13.46c-.16-10.69-.18-19.85-.34-23.35-.16-3.51,3.77-13.71-16.13-32.25-17.87-16.65-56.88-35.72-66.56-38.04-9.68-2.32-51.34-57.4-66.69-68.08-45.84-31.89-161.33-61.59-189.78-61.22-16.49-.44-84.92,32.96-92.53,37.56-39.39,23.78-12.68,14.06-41.51,49.8-1.76,1.77-2.9,10.31-2.69,15.61.04.92-.08,1.83-.41,2.68-.76,1.94-1.78,4.5-1.9,5.03-.9,4.19,2.3,24.91,2.36,28.94.07,4.72-.79,13.29.26,18.04,1.06,4.75,13.87,15.97,13.97,14.53.1-1.44.8-9.55.38-15.12-.14-9.7,8.28-18.11,16.83-19.93,11.12-2.37,21.36.86,29.6,14.11,15.83,25.43,8.62,39.3,8.98,49.75.06,1.85,1.32,3.38,3,4.17l133.96,63.35c3.44,1.63,7.09-1.4,6.81-5.19-.43-5.89-.54-33.45,17.5-39.62,15.89-5.44,36.48,13.37,46.25,28.71,7.58,11.9,13.79,35.48,15.71,50.08.27,2.08,1.54,3.92,3.45,4.8,10.5,4.83,36.58,15.1,74.13,3.37,82.72-25.83,99.49-50.01,102.94-56.59Z"/>
      </g>
    </mask>
    <linearGradient id="_Безымянный_градиент_8" data-name="Безымянный градиент 8" x1="376.24" y1="907.76" x2="253.2" y2="781.46" gradientTransform="translate(0 1313.51) scale(1 -1)" gradientUnits="userSpaceOnUse">
      <stop offset="0" stop-color="#e8eae9"/>
      <stop offset=".5" stop-color="#707072"/>
      <stop offset="1" stop-color="#2f3032"/>
    </linearGradient>
    <linearGradient id="_Безымянный_градиент_8-2" data-name="Безымянный градиент 8" x1="202.38" y1="492.56" x2="132" y2="875.36" xlink:href="#_Безымянный_градиент_8"/>
    <linearGradient id="_Безымянный_градиент_10" data-name="Безымянный градиент 10" x1="302.49" y1="707.89" x2="316.7" y2="753.78" gradientTransform="translate(0 1313.51) scale(1 -1)" gradientUnits="userSpaceOnUse">
      <stop offset="0" stop-color="#eceaea"/>
      <stop offset="1" stop-color="#fff" stop-opacity="0"/>
    </linearGradient>
    <linearGradient id="_Безымянный_градиент_10-2" data-name="Безымянный градиент 10" x1="480.99" y1="822.79" x2="420.49" y2="799.51" xlink:href="#_Безымянный_градиент_10"/>
    <linearGradient id="_Безымянный_градиент_11" data-name="Безымянный градиент 11" x1="420.21" y1="730.2" x2="409.82" y2="750.81" gradientTransform="translate(0 1313.51) scale(1 -1)" gradientUnits="userSpaceOnUse">
      <stop offset="0" stop-color="#4b4b4b"/>
      <stop offset=".9" stop-color="#000" stop-opacity="0"/>
    </linearGradient>
    <mask id="mask-1" x="294.84" y="533.05" width="185.43" height="86.29" maskUnits="userSpaceOnUse">
      <g id="mask1_86_5" data-name="mask1 86 5">
        <path class="cls-34" d="M468.18,550.26c1.89-2.5,2.81-5.2,3.11-7.9.47-4.27,4.71-6.53,6.52-2.53,1.27,2.81,1.94,5.14,2.22,6.71.34,2.75.3,4.49.06,7.03-.11,1.16-6.25,7.83-5.85,9.36.4,1.53.16,10.96.21,14.32.05,3.36-5.41,12.7-23.69,24.39-15.18,9.71-37.09,16.26-39.34,16.59-2.25.34-4.57-6.8-6.22-7.18-4.3-.98-16.89,3.6-21.6,4.8-5.49,1.39-18.31,4.6-32.4,3.08-17.42-1.88-20.12-3.71-36.23-11.75-9.07-4.52-15.98-12.78-19.61-18.78-1.56-2.58.63-4.91,3.53-4.03,11.81,3.57,33.53,10.24,57.77,12.26,38.44,3.2,68.49-14.51,72.8-17.05,18.1-10.7,27.63-14.69,38.72-29.33Z"/>
      </g>
    </mask>
    <clipPath id="clippath">
      <polygon class="cls-20" points="156.47 151.66 630.95 151.66 630.18 433.67 155.7 433.67 156.47 151.66"/>
    </clipPath>
    <linearGradient id="_Безымянный_градиент_3-3" data-name="Безымянный градиент 3" x1="-1937.68" y1="670.06" x2="-1935.27" y2="706.6" gradientTransform="translate(-1570.86 948.4) rotate(-176.74) skewX(2.01)" xlink:href="#_Безымянный_градиент_3"/>
    <linearGradient id="_Безымянный_градиент_14" data-name="Безымянный градиент 14" x1="-1954.89" y1="666.37" x2="-1952.57" y2="701.25" gradientTransform="translate(-1561.97 1029.44) rotate(-179.06) skewX(.61)" gradientUnits="userSpaceOnUse">
      <stop offset="0" stop-color="#aaa"/>
      <stop offset="1" stop-color="#c2c2c2"/>
    </linearGradient>
    <linearGradient id="_Безымянный_градиент_3-4" data-name="Безымянный градиент 3" x1="-2008.19" y1="860.61" x2="-2006.19" y2="890.9" gradientTransform="translate(-1852.21 1078.06) rotate(-178.12) scale(1.02 .98) skewX(1.12)" xlink:href="#_Безымянный_градиент_3"/>
    <linearGradient id="_Безымянный_градиент_14-2" data-name="Безымянный градиент 14" x1="-1986.31" y1="804.97" x2="-1984.31" y2="834.21" gradientTransform="translate(-1832.21 964.77) rotate(-176.32) scale(1.02 .98) skewX(2.29)" xlink:href="#_Безымянный_градиент_14"/>
    <linearGradient id="_Безымянный_градиент_6-2" data-name="Безымянный градиент 6" x1="234.25" y1="998.91" x2="613.02" y2="1049.52" xlink:href="#_Безымянный_градиент_6"/>
    <linearGradient id="_Безымянный_градиент_8-3" data-name="Безымянный градиент 8" x1="500.17" y1="1150.93" x2="382.32" y2="1033.62" xlink:href="#_Безымянный_градиент_8"/>
    <linearGradient id="_Безымянный_градиент_8-4" data-name="Безымянный градиент 8" x1="177.78" y1="867.47" x2="286.83" y2="1077.43" xlink:href="#_Безымянный_градиент_8"/>
    <linearGradient id="_Безымянный_градиент_8-5" data-name="Безымянный градиент 8" x1="194.84" y1="1043.83" x2="256.22" y2="1138.44" xlink:href="#_Безымянный_градиент_8"/>
    <linearGradient id="_Безымянный_градиент_10-3" data-name="Безымянный градиент 10" x1="439.58" y1="961.35" x2="453.56" y2="1004.42" xlink:href="#_Безымянный_градиент_10"/>
    <linearGradient id="_Безымянный_градиент_10-4" data-name="Безымянный градиент 10" x1="609.35" y1="1067.15" x2="551.97" y2="1046.18" xlink:href="#_Безымянный_градиент_10"/>
    <linearGradient id="_Безымянный_градиент_13" data-name="Безымянный градиент 13" x1="275.89" y1="966.38" x2="291.89" y2="1002.24" gradientTransform="translate(0 1313.51) scale(1 -1)" gradientUnits="userSpaceOnUse">
      <stop offset="0" stop-color="#040404"/>
      <stop offset="1" stop-color="#3c3c3c" stop-opacity="0"/>
    </linearGradient>
    <linearGradient id="_Безымянный_градиент_11-2" data-name="Безымянный градиент 11" x1="564.5" y1="957.56" x2="555.01" y2="977.05" xlink:href="#_Безымянный_градиент_11"/>
    <mask id="mask-2" x="456.82" y="306.14" width="173.66" height="79.19" maskUnits="userSpaceOnUse">
      <g id="mask0_86_156" data-name="mask0 86 156">
        <path class="cls-2" d="M619.18,322.17c1.73-2.21,2.63-4.61,2.98-7.01.59-4.02,4.62-6.23,6.23-2.48,1.11,2.59,1.68,4.73,1.91,6.17.27,2.57.2,4.2-.06,6.57-.12,1.08-4.34,7.07-3.99,8.5.35,1.43-.44,11.28-.39,12.77.05,1.49-6.53,12.57-23.78,23.26-14.33,8.88-34.89,14.72-37,15.01-2.11.29-4.16-6.41-5.69-6.78-4-.97-15.83,3.16-20.25,4.21-5.15,1.23-17.17,4.07-30.3,2.48-16.24-1.97-18.72-3.72-33.64-11.42-8.34-4.3-14.63-12.03-17.94-17.66-1.43-2.44.68-4.66,3.38-3.81,10.99,3.49,31.11,9.95,53.66,12.13,35.84,3.46,64.18-12.7,68.24-15.03,17.07-9.77,26.03-13.38,36.62-26.91Z"/>
      </g>
    </mask>
    <linearGradient id="_Безымянный_градиент_3-5" data-name="Безымянный градиент 3" x1="-2295.3" y1="663.19" x2="-2292.74" y2="702.02" gradientTransform="translate(-1578.7 810.25) rotate(-176.49) skewX(2.18)" xlink:href="#_Безымянный_градиент_3"/>
    <linearGradient id="_Безымянный_градиент_4-3" data-name="Безымянный градиент 4" x1="-2310.82" y1="653.57" x2="-2324.85" y2="720.6" gradientTransform="translate(-1570.8 901.88) rotate(-178.81) skewX(.78)" xlink:href="#_Безымянный_градиент_4"/>
    <linearGradient id="_Безымянный_градиент_3-6" data-name="Безымянный градиент 3" x1="-2358.83" y1="916.23" x2="-2356.62" y2="949.57" gradientTransform="translate(-1872.68 1006.48) rotate(-177.78) scale(1.02 .98) skewX(1.33)" xlink:href="#_Безымянный_градиент_3"/>
    <linearGradient id="_Безымянный_градиент_4-4" data-name="Безымянный градиент 4" x1="-2357.44" y1="945.12" x2="-2369.92" y2="1003.18" gradientTransform="translate(-1880.39 988.34) rotate(-176.62) scale(1.02 .98) skewX(2.1)" xlink:href="#_Безымянный_градиент_4"/>
    <linearGradient id="_Безымянный_градиент_5-2" data-name="Безымянный градиент 5" x1="684.65" y1="1075" x2="836.78" y2="1305.36" xlink:href="#_Безымянный_градиент_5"/>
    <linearGradient id="_Безымянный_градиент_6-3" data-name="Безымянный градиент 6" x1="765.82" y1="1057.93" x2="655.49" y2="1314.59" xlink:href="#_Безымянный_градиент_6"/>
    <mask id="mask-3" x="490.18" y="0" width="498.02" height="316.1" maskUnits="userSpaceOnUse">
      <g id="mask0_86_5-2" data-name="mask0 86 5">
        <path class="cls-25" d="M966.48,254.1c3.46-6.59,2.5-12.42,2.6-17.7l-.2-13.46c-.16-10.69-.18-19.85-.34-23.35-.16-3.51,3.77-13.71-16.13-32.25-17.87-16.65-56.88-35.72-66.56-38.04-9.68-2.32-51.34-57.4-66.69-68.08C773.31,29.33,657.83-.37,629.38,0c-16.49-.44-84.92,32.96-92.53,37.56-39.39,23.78-12.68,14.06-41.51,49.8-1.76,1.77-2.9,10.31-2.69,15.61.04.92-.08,1.83-.41,2.68-.76,1.94-1.78,4.5-1.9,5.03-.9,4.19,2.3,24.91,2.36,28.94.07,4.72-.79,13.29.26,18.04,1.06,4.75,13.87,15.97,13.97,14.53.1-1.44.8-9.55.38-15.12-.14-9.7,8.28-18.11,16.83-19.93,11.12-2.37,21.36.86,29.6,14.11,15.83,25.43,8.62,39.3,8.98,49.75.06,1.85,1.32,3.38,3,4.17l133.96,63.35c3.44,1.63,7.09-1.4,6.81-5.19-.43-5.89-.54-33.45,17.5-39.62,15.89-5.44,36.48,13.37,46.25,28.71,7.58,11.9,13.79,35.48,15.71,50.08.27,2.08,1.54,3.92,3.45,4.8,10.5,4.83,36.58,15.1,74.13,3.37,82.72-25.83,99.49-50.01,102.94-56.59Z"/>
      </g>
    </mask>
    <linearGradient id="_Безымянный_градиент_8-6" data-name="Безымянный градиент 8" x1="866.42" y1="1264.31" x2="743.38" y2="1138.01" xlink:href="#_Безымянный_градиент_8"/>
    <linearGradient id="_Безымянный_градиент_8-7" data-name="Безымянный градиент 8" x1="692.55" y1="849.11" x2="622.18" y2="1231.91" xlink:href="#_Безымянный_градиент_8"/>
    <linearGradient id="_Безымянный_градиент_10-5" data-name="Безымянный градиент 10" x1="792.67" y1="1064.43" x2="806.88" y2="1110.33" xlink:href="#_Безымянный_градиент_10"/>
    <linearGradient id="_Безымянный_градиент_10-6" data-name="Безымянный градиент 10" x1="971.17" y1="1179.33" x2="910.67" y2="1156.06" xlink:href="#_Безымянный_градиент_10"/>
    <linearGradient id="_Безымянный_градиент_11-3" data-name="Безымянный градиент 11" x1="910.39" y1="1086.75" x2="900" y2="1107.35" xlink:href="#_Безымянный_градиент_11"/>
    <mask id="mask-4" x="785.02" y="176.51" width="185.43" height="86.29" maskUnits="userSpaceOnUse">
      <g id="mask1_86_5-2" data-name="mask1 86 5">
        <path class="cls-34" d="M958.36,193.72c1.89-2.5,2.81-5.2,3.11-7.9.47-4.27,4.71-6.53,6.52-2.53,1.27,2.81,1.94,5.14,2.22,6.71.34,2.75.3,4.49.06,7.03-.11,1.16-6.25,7.83-5.85,9.36.4,1.53.16,10.96.21,14.32.05,3.36-5.41,12.7-23.69,24.39-15.18,9.71-37.09,16.26-39.34,16.59-2.25.34-4.57-6.8-6.22-7.18-4.3-.98-16.89,3.6-21.6,4.8-5.49,1.39-18.31,4.6-32.4,3.08-17.42-1.88-20.12-3.71-36.23-11.75-9.07-4.52-15.98-12.78-19.61-18.78-1.56-2.58.63-4.91,3.53-4.03,11.81,3.57,33.53,10.24,57.77,12.26,38.44,3.2,68.49-14.51,72.8-17.05,18.1-10.7,27.63-14.69,38.72-29.33Z"/>
      </g>
    </mask>
  </defs>
  <g id="_Слой_1-2" data-name="Слой 1">
    <g>
      <path class="cls-33" d="M266.77,578.23c-.41-.93-28.04-4.98-41.8-6.89-5.01,4.1-15.22,12.71-15.98,14.4-.95,2.1.27,18.6,11.24,30.55,10.97,11.95,34.74-6.5,42.3-9.39,7.56-2.89,4.75-27.51,4.24-28.66Z"/>
      <path class="cls-44" d="M66.26,487.37c-.41-.93-28.04-4.98-41.8-6.89-5.01,4.1-15.22,12.71-15.98,14.4-.95,2.11.27,18.6,11.24,30.55,10.97,11.95,34.74-6.5,42.3-9.39,7.56-2.89,4.75-27.51,4.24-28.66Z"/>
      <path class="cls-12" d="M228.99,587.09l25.82-11.77h0c.16-.06.32-.14.48-.21,15.38-6.79,37.68,7.84,49.81,32.67,12.13,24.83,9.49,50.47-5.89,57.26-.2.08-.39.17-.59.25l-24.93,11.38-14.29-28.64c-3.75-4.56-7.15-9.83-10-15.65-2.63-5.38-4.56-10.79-5.82-16.05l-14.59-29.24Z"/>
      <ellipse class="cls-17" cx="251.68" cy="631.78" rx="30.41" ry="50.02" transform="translate(-261.92 186.01) rotate(-27.32)"/>
      <ellipse class="cls-6" cx="250.79" cy="631.81" rx="22.81" ry="37.52" transform="translate(-262.03 185.61) rotate(-27.32)"/>
      <path class="cls-38" d="M252.33,605.94c3.01,1.79,5.96,4.3,8.67,7.39l-6.55,11.15c-.6-.65-1.22-1.22-1.87-1.71l-.25-16.83ZM252.87,643.14c.73.15,1.44.18,2.12.06l10.2,16.26c-.24.13-.49.25-.74.36-3.4,1.5-7.33,1.32-11.34-.21l-.24-16.47ZM250.76,658.55l-.24-16.31c-.9-.5-1.8-1.16-2.65-1.97l-6.46,10.98c2.94,3.16,6.14,5.65,9.35,7.3ZM250.21,621.35l-.24-16.68c-4.52-2.12-9.04-2.56-12.87-.87-1.07.47-2.04,1.09-2.91,1.83l10.16,16.2c.34-.29.71-.53,1.13-.71,1.41-.62,3.06-.5,4.73.22ZM233.41,639.48c1.81,3.7,3.98,7.04,6.37,9.92l6.43-10.95c-.71-.91-1.37-1.92-1.94-3.02l-11.34,3.05c.15.33.31.66.47.99ZM256,626.42l6.58-11.19c2.07,2.64,3.96,5.64,5.56,8.92.36.74.7,1.48,1.02,2.21l-11.43,3.08c-.06-.14-.13-.28-.2-.41-.45-.93-.97-1.8-1.53-2.6ZM232.02,636.36c-1.94-4.75-3.02-9.48-3.28-13.82l13.65,7.26c.18,1.14.49,2.32.94,3.52l-11.31,3.04ZM258.56,631.59c.52,1.6.78,3.17.8,4.61l13.51,7.18c.04-4.58-.9-9.69-2.85-14.88l-11.46,3.08ZM272.74,645.93l-13.62-7.24c-.33,1.5-1,2.73-1.99,3.54l9.99,15.94c3.23-2.63,5.13-6.98,5.62-12.25ZM228.68,619.9l13.54,7.2c.05-1.19.28-2.27.67-3.2l-10.36-16.53c-2.45,3.07-3.75,7.46-3.85,12.53Z"/>
      <path class="cls-12" d="M228.99,586.58l25.82-11.77h0c.16-.07.32-.15.49-.22,15.38-6.79,37.68,7.84,49.81,32.67,12.13,24.83,9.49,50.47-5.89,57.26-.15.07-.3.13-.45.19l-25.07,11.44-14.31-28.67c-3.74-4.55-7.14-9.82-9.98-15.63-2.62-5.37-4.55-10.78-5.82-16.02l-14.6-29.25Z"/>
      <path class="cls-17" d="M223.78,644.56c11.98,24.53,33.97,38.99,49.11,32.3,15.15-6.69,17.72-31.99,5.74-56.52-11.98-24.53-34.64-40.31-49.79-33.62-15.15,6.69-17.05,33.31-5.07,57.83Z"/>
      <ellipse class="cls-7" cx="251.05" cy="631.81" rx="21.4" ry="36.13" transform="translate(-248.42 170.58) rotate(-25.61)"/>
      <path class="cls-32" d="M238.96,642.67c5.06,8.27,12.13,13.64,18.34,14.15l-6.69-13.95c-1.33-.79-2.64-1.95-3.84-3.39l-7.82,3.18ZM235.81,636.49c-4.12-9.88-4.1-19.72-.36-25.26l6.69,13.95c-.33,2.4.04,5.31,1.16,8.26l-7.49,3.05ZM257.66,627.6c-2.72-5.13-7.01-8.37-10.52-8.14l-5.95-12.42c7.71-2.04,18.01,5.37,23.96,17.51l-7.49,3.04ZM259.89,634.16l7.82-3.18c3.21,10.34,1.86,20-3.55,24l-5.95-12.42c1.64-1.78,2.23-4.89,1.68-8.4Z"/>
      <path class="cls-12" d="M32.87,498.89l23.63-6.13h0c.15-.03.31-.07.46-.11,14.04-3.46,30.43,12.1,36.6,34.77,6.17,22.67-.21,43.85-14.25,47.31-.18.04-.35.08-.53.12l-22.84,5.93-7.4-26.27c-2.39-4.36-4.39-9.27-5.83-14.56-1.33-4.88-2.08-9.69-2.29-14.26l-7.55-26.81Z"/>
      <ellipse class="cls-17" cx="44.69" cy="539.8" rx="26.18" ry="42.51" transform="translate(-147.7 33.48) rotate(-16.07)"/>
      <ellipse class="cls-5" cx="43.95" cy="539.7" rx="19.63" ry="31.88" transform="translate(-147.71 33.27) rotate(-16.07)"/>
      <path class="cls-38" d="M49.43,518.15c2.24,1.95,4.32,4.49,6.09,7.49l-7.33,8.43c-.4-.63-.83-1.2-1.28-1.71l2.53-14.21ZM43.85,549.53c.59.23,1.18.36,1.77.36l5.94,15.18c-.22.07-.45.14-.68.19-3.1.76-6.38.04-9.5-1.84l2.47-13.89ZM39.56,562.18l2.44-13.75c-.68-.55-1.32-1.24-1.91-2.04l-7.21,8.29c1.96,3.09,4.24,5.64,6.67,7.5ZM45.14,530.81l2.5-14.07c-3.46-2.44-7.18-3.46-10.67-2.6-.97.24-1.89.62-2.74,1.12l5.91,15.11c.33-.19.68-.34,1.05-.43,1.29-.32,2.66.03,3.95.88ZM28.08,543.61c.92,3.38,2.21,6.51,3.75,9.28l7.18-8.26c-.45-.87-.84-1.82-1.15-2.84l-10.02.91c.08.31.16.61.24.92ZM49.19,535.93l7.36-8.46c1.31,2.53,2.41,5.32,3.23,8.31.18.67.35,1.34.5,2.01l-10.13.92c-.03-.12-.06-.25-.1-.38-.23-.85-.52-1.65-.86-2.4ZM27.41,540.77c-.86-4.28-1-8.41-.52-12.1l10.29,8.09c-.04.99.03,2.03.22,3.11l-10,.9ZM50.5,540.64c.18,1.43.14,2.79-.07,4.01l10.21,8.03c.78-3.85.82-8.29.01-12.95l-10.15.92ZM60.12,554.78l-10.29-8.09c-.52,1.21-1.28,2.15-2.24,2.69l5.82,14.88c3.14-1.74,5.45-5.13,6.71-9.48ZM27.27,526.45l10.21,8.03c.24-1,.6-1.88,1.09-2.6l-6.03-15.41c-2.56,2.23-4.37,5.73-5.27,9.98Z"/>
      <path class="cls-12" d="M49,556.94c-3.68-5.43-6.73-11.99-8.71-19.28-1.87-6.88-2.59-13.62-2.29-19.77l-5.19-18.41,12.52-3.25c2.51-2.94,5.61-4.99,9.2-5.88,14.04-3.46,30.43,12.1,36.6,34.77,5.9,21.65.34,41.95-12.41,46.74l.42,1.49-23.26,8.03-6.88-24.44Z"/>
      <ellipse class="cls-17" cx="44.4" cy="540.56" rx="26.09" ry="42.37" transform="translate(-147.93 33.43) rotate(-16.07)"/>
      <g>
        <ellipse class="cls-28" cx="43.9" cy="540.52" rx="18.42" ry="30.79" transform="translate(-148.14 33.36) rotate(-16.1)"/>
        <path class="cls-32" d="M30.65,545.44c2.64,8.28,7.75,14.58,13.07,16.6l-3.03-12.94c-1.2-1.23-2.27-2.88-3.06-4.82l-6.98,1.15ZM29.27,539.58c-1.26-8.37.59-15.79,4.66-19.27l3.03,12.94c-.55,1.45-.79,3.24-.68,5.18l-7.01,1.16ZM49.01,536.31c-1.56-3.61-4.1-6.17-6.61-6.69l-2.67-11.4c6.32.17,13.05,7.12,16.28,16.94l-7,1.15ZM50.47,542.17l6.96-1.15c1.65,10.25-1.36,19.15-7.39,21.25l-2.67-11.4c2.22-1.29,3.41-4.69,3.09-8.7Z"/>
      </g>
      <path class="cls-29" d="M476.3,610.65c3.46-6.59,2.5-12.42,2.6-17.7l-.2-13.46c-.16-10.69-.18-19.85-.34-23.35-.16-3.51,3.77-13.71-16.13-32.25-17.87-16.65-56.88-35.72-66.56-38.04-9.68-2.32-51.34-57.4-66.69-68.08-45.84-31.89-161.33-61.59-189.78-61.22-16.49-.44-84.92,32.96-92.53,37.56-39.39,23.78-12.68,14.06-41.51,49.8-1.93,1.94-3.1,11.96-2.6,17-.7,1.84-2.26,5.65-2.4,6.33-.9,4.19,2.3,24.91,2.36,28.94.07,4.72-.79,13.29.26,18.04,1.06,4.75,13.87,15.97,13.97,14.53-.08-5.29.28-6.25,1.62-14.73,3.66-13.25,10.27-19.19,15.58-20.32,11.12-2.37,21.37,1.85,29.62,15.09,15.88,25.51,9.6,41.71,11.89,52.54l142.52,67.77c-1.43-7.52-1.1-4.28-1.45-8.99-.43-5.89-.76-33.65,17.28-39.82,15.89-5.44,36.48,13.37,46.25,28.71,8.2,12.87,14.79,39.38,16.1,53.44,7.55,3.53,35.2,17.93,77.2,4.81,82.72-25.83,99.49-50.01,102.94-56.59Z"/>
      <g class="cls-57">
        <g>
          <path class="cls-23" d="M255.09,530.9c-13.23-9.41-12.73-21.38-32.11-54.25-2.11-3.58-.64-8.23,3.18-9.82l100.81-42.09c2.46-1.03,5.6-1.19,7.6.59,3.95,3.51,12.31,12.01,29.95,32.27,12.58,14.44,14.98,18.06,24.31,26.77,1.11,1.04-1.07,3.86-5.77,7.63-14.99,12.04-105.16,55.12-127.97,38.9Z"/>
          <path class="cls-45" d="M126.76,429.33c-29.63-13.33-37.74-14.88-58.23-7.17-10.36,3.9-23.18,8.21-24.92,14.98-1.74,6.77,28.75,22.45,37.67,26.98,4.36,2.21,159.86,77.6,156.53,68.64-4.09-10.99-26.29-54.97-34.45-66.06-5.26-7.14-46.96-24.03-76.59-37.36Z"/>
          <path class="cls-9" d="M294.4,587.3c-37.97-16.12-59.48-36.71-82.48-55.48,67.96,18.13,210.24,57.88,208.06,60.62-2.73,3.42-12.84,7.57-46.62,10.18-33.25,2.57-74.61-13.47-78.96-15.32Z"/>
          <path class="cls-41" d="M438.92,506.05c-2.17-1.64-29.49-27.74-49.85-40.65,17.12,30.61,56.11,97.13,59.64,96.75,4.41-.48,24.58-4.33,30.34-17.45,5.67-12.91-37.42-36.6-40.13-38.65Z"/>
          <path class="cls-19" d="M162.8,522.79c-.01-.81-.5-1.53-1.25-1.87l-11.2-4.98c-1.49-.66-3.21.44-3.18,2.04h0c.01.82.5,1.54,1.26,1.88l11.21,4.96c1.48.65,3.19-.44,3.17-2.04h0Z"/>
          <path class="cls-19" d="M90.16,493.54c-.01-.81-.5-1.54-1.25-1.87l-11.2-4.98c-1.49-.66-3.21.44-3.18,2.04h0c.01.82.5,1.54,1.26,1.88l11.21,4.96c1.48.65,3.19-.44,3.17-2.04h0Z"/>
          <path class="cls-3" d="M343.37,513.46l-81.36-61.09c-9.81,2.66-32.01,12.7-36.26,14.28-5.5,2.04-5.24,5.06-5.24,5.06.02,1.58-.19.48,1.61,3.59,2.99,5.17,5.39,9.78,11.87,23.1,11.13,22.88,13.51,28.64,22.82,33.77,7.01,3.86,21.61,4.44,39.23-1.33,15.75-5.16,33.81-11.38,47.33-17.37Z"/>
          <g class="cls-53">
            <path class="cls-50" d="M459.76,540.52c-23.17,17.88-74.92,43.68-98.14,47.82"/>
          </g>
          <path class="cls-21" d="M468.16,550.33c4.46-5.88,3.14-10.52,2.36-17.8-.02-.23-.08-.47-.16-.68-2-5.66,6.75,6.19,7.77,14.47.34,2.75.17,4.14-.06,6.68-.11,1.16-4.1,8.9-3.7,10.42.4,1.52.14,13.06.21,14.65.08,1.59-5.6,11.96-23.88,23.64-15.19,9.71-37.1,16.23-39.35,16.57-2.25.34-4.57-6.81-6.21-7.18-4.3-.98-16.89,3.59-21.6,4.78-5.49,1.39-18.32,4.59-32.4,3.06-17.42-1.89-20.11-3.73-36.22-11.77-10.07-5.03-17.47-14.67-20.68-20.69-.92-1.74.59-3.34,2.47-2.77,11.18,3.35,34.12,10.78,59.9,12.94,38.44,3.22,68.5-14.47,72.81-17.01,18.11-10.69,27.64-14.68,38.74-29.3Z"/>
          <g class="cls-56">
            <g>
              <path class="cls-47" d="M322.62,588.84l50.06.05c.11.32.23.71.33,1.16.31,1.32.48,3.06.04,4.85-.43,1.76-1.48,3.65-3.77,5.32-2.32,1.69-5.97,3.2-11.67,4-3.36.47-8.04.52-12.87-.28-4.83-.8-9.68-2.44-13.49-5.23-2.03-1.49-4.59-4.51-6.73-7.3-.71-.93-1.36-1.82-1.91-2.59Z"/>
              <path class="cls-47" d="M470.6,536.15c.36.67.75,1.49,1.08,2.42.95,2.69,1.39,6.26-.41,10.08-.49,1.03-1.16,1.65-1.76,1.89-.52.21-1.22.23-2.12-.4-.84-.58-1.94-.78-2.86-.86-.93-.08-1.93-.04-2.83.03l8.9-13.17Z"/>
            </g>
          </g>
        </g>
      </g>
    </g>
    <g class="cls-55">
      <g>
        <path class="cls-12" d="M372.42,336.22l24.48-10.75h0c.16-.06.32-.13.47-.2,14.58-6.2,35.33,7.84,46.33,31.36,11,23.52,8.1,47.61-6.48,53.81-.2.09-.4.17-.61.25l-23.61,10.38-13.01-27.2c-3.43-4.32-6.53-9.3-9.1-14.79-2.37-5.07-4.1-10.16-5.2-15.09l-13.29-27.77Z"/>
        <ellipse class="cls-17" cx="393.04" cy="378.54" rx="28.66" ry="47" transform="translate(-127 213.23) rotate(-26.29)"/>
        <ellipse class="cls-14" cx="392.21" cy="378.57" rx="21.5" ry="35.25" transform="translate(-127.1 212.86) rotate(-26.29)"/>
        <path class="cls-38" d="M393.92,354.13c2.86,1.73,5.66,4.17,8.21,7.17l-6.35,10.42c-.6-.67-1.24-1.27-1.9-1.77l.04-15.82ZM393.83,389.21c.81.2,1.6.24,2.34.09l9.3,15.39c-.27.15-.56.28-.85.4-3.27,1.39-7.04,1.15-10.84-.41l.04-15.47ZM391.75,403.72l.04-15.35c-.88-.5-1.76-1.18-2.58-2.01l-6.24,10.24c2.74,3.07,5.75,5.5,8.79,7.11ZM391.84,368.72l.04-15.7c-4.22-2.05-8.46-2.51-12.08-.97-1.01.43-1.93,1-2.76,1.69l9.29,15.37c.32-.27.68-.49,1.07-.65,1.34-.57,2.89-.43,4.45.26ZM375.76,385.56c1.64,3.51,3.63,6.68,5.83,9.41l6.23-10.21c-.69-.9-1.32-1.92-1.85-3.02l-10.7,2.73c.16.37.33.73.5,1.09ZM397.11,373.41l6.37-10.45c1.95,2.55,3.71,5.44,5.2,8.61.33.7.63,1.4.92,2.1l-10.82,2.75c-.06-.13-.12-.26-.18-.39-.44-.94-.94-1.82-1.49-2.62ZM374.49,382.61c-1.78-4.57-2.72-9.09-2.87-13.23l12.7,6.98c.14,1.13.43,2.32.86,3.53l-10.68,2.72ZM399.49,378.3c.49,1.57.73,3.11.73,4.51l12.61,6.93c.11-4.35-.7-9.24-2.5-14.2l-10.83,2.76ZM412.67,391.95l-12.69-6.98c-.32,1.48-.98,2.69-1.97,3.47l9.15,15.13c3.11-2.46,4.98-6.6,5.51-11.63ZM371.62,367.09l12.61,6.93c.07-1.2.33-2.29.77-3.19l-9.45-15.63c-2.43,2.87-3.76,7.04-3.94,11.88Z"/>
        <path class="cls-12" d="M372.44,335.72l24.48-10.75h0c.15-.06.3-.13.46-.19,14.58-6.2,35.33,7.84,46.33,31.36,11,23.52,8.1,47.61-6.48,53.81-.15.06-.29.12-.44.18l-23.75,10.44-12.98-27.12c-3.45-4.34-6.57-9.34-9.16-14.86-2.38-5.1-4.12-10.22-5.22-15.18l-13.24-27.68Z"/>
        <path class="cls-37" d="M366.35,389.77c11,23.5,31.73,37.53,46.31,31.33,14.58-6.2,17.49-30.27,6.5-53.77-11-23.5-32.35-38.79-46.94-32.6-14.58,6.2-16.87,31.54-5.88,55.04Z"/>
        <ellipse class="cls-35" cx="392.47" cy="378.57" rx="20.17" ry="33.95" transform="translate(-121.87 197.46) rotate(-24.57)"/>
        <path class="cls-39" d="M380.65,388.21c4.78,8.34,11.76,13.74,17.84,14.02l-5.89-12.83c-1.61-.82-3.22-2.22-4.61-4.05l-7.34,2.87ZM378.04,382.78c-3.83-9.63-3.53-19.16.41-24.22l5.89,12.83c-.59,2.39-.35,5.48.79,8.63l-7.09,2.77ZM398.74,374.69c-2.47-4.86-6.46-7.97-9.77-7.79l-5.4-11.76c7.29-1.83,16.86,5.27,22.27,16.77l-7.1,2.77ZM400.66,380.39l7.35-2.87c3.04,9.95,1.65,19.27-3.6,23.02l-5.4-11.76c1.65-1.74,2.24-4.86,1.65-8.38Z"/>
        <path class="cls-12" d="M188.91,248.59l21.56-5.28h0c.14-.02.27-.06.41-.09,12.81-2.98,27.45,11.36,32.7,32.03,5.25,20.67-.88,39.84-13.69,42.82-.19.04-.38.08-.56.12l-20.76,5.1-6.3-23.92c-2.11-4-3.85-8.49-5.08-13.32-1.13-4.46-1.74-8.85-1.86-13.02l-6.43-24.42Z"/>
        <ellipse class="cls-17" cx="198.99" cy="285.91" rx="23.81" ry="38.58" transform="translate(-67.08 61.09) rotate(-14.97)"/>
        <ellipse class="cls-27" cx="198.33" cy="285.81" rx="17.86" ry="28.94" transform="translate(-67.08 60.91) rotate(-14.97)"/>
        <path class="cls-38" d="M203.54,266.18c2.05,1.81,3.94,4.19,5.54,6.98l-6.8,7.58c-.38-.63-.81-1.2-1.26-1.7l2.52-12.86ZM197.96,294.69c.62.28,1.26.42,1.88.4l5.14,13.82c-.24.08-.49.15-.74.21-2.87.67-5.89-.06-8.73-1.87l2.46-12.56ZM194,306.17l2.44-12.46c-.64-.53-1.24-1.2-1.78-1.99l-6.67,7.43c1.74,2.88,3.8,5.27,6.01,7.01ZM199.56,277.75l2.5-12.76c-3.1-2.25-6.47-3.23-9.65-2.49-.89.21-1.73.54-2.51.99l5.13,13.8c.3-.17.62-.29.96-.38,1.18-.27,2.42.06,3.57.85ZM183.86,289.17c.78,3.08,1.9,5.94,3.26,8.48l6.65-7.41c-.42-.84-.77-1.75-1.04-2.73l-9.1.7c.07.32.15.64.23.97ZM203.09,282.32l6.82-7.6c1.18,2.34,2.16,4.94,2.87,7.72.16.61.3,1.22.42,1.83l-9.22.71c-.03-.11-.05-.23-.08-.34-.21-.82-.48-1.6-.8-2.33ZM183.3,286.59c-.73-3.96-.78-7.77-.26-11.15l9.2,7.45c-.06.94-.02,1.95.14,2.99l-9.09.7ZM204.25,286.61c.16,1.35.11,2.63-.12,3.78l9.16,7.42c.78-3.53.88-7.62.2-11.91l-9.24.71ZM212.84,299.57l-9.22-7.47c-.49,1.16-1.22,2.05-2.14,2.55l5.06,13.59c2.91-1.56,5.08-4.66,6.29-8.67ZM183.4,273.58l9.14,7.41c.25-.97.63-1.81,1.13-2.49l-5.22-14.03c-2.42,1.99-4.16,5.19-5.06,9.11Z"/>
        <path class="cls-12" d="M202.21,299.91c-2.12-4.01-3.86-8.5-5.09-13.34-1.13-4.46-1.74-8.86-1.86-13.04l-6.42-24.4,21.56-5.28h0c.14-.03.27-.07.41-.1,12.81-2.98,27.45,11.36,32.7,32.03,5.25,20.67-.88,39.84-13.69,42.82-.11.03-.23.05-.34.07l-20.97,5.15-6.3-23.91Z"/>
        <ellipse class="cls-33" cx="198.92" cy="285.99" rx="24.07" ry="39.01" transform="translate(-67.11 61.07) rotate(-14.97)"/>
        <g>
          <ellipse class="cls-4" cx="197.49" cy="288.57" rx="16.71" ry="28.01" transform="translate(-86.03 83.89) rotate(-19.79)"/>
          <path class="cls-39" d="M186.13,294.84c2.91,7.29,7.93,12.53,12.86,13.63l-3.31-11.24c-1.15-.86-2.24-2.14-3.11-3.7l-6.44,1.31ZM184.6,290c-1.96-8.24-.57-15.84,3.25-19.42l3.31,11.25c-.72,1.83-.88,4.29-.35,6.91l-6.21,1.27ZM202.71,286.31c-1.45-4.27-4.37-7.33-7.13-7.63l-3.01-10.23c6.25-.48,13.29,6.57,16.33,16.59l-6.19,1.26ZM203.59,291.28l6.43-1.31c1.25,8.41-1.06,15.68-5.83,17.97l-3.01-10.22c1.57-1.16,2.45-3.56,2.42-6.44Z"/>
        </g>
        <path class="cls-30" d="M510.97,237.34c1.06.61,2,1.03,2.82,1.24,9.07,2.3,85.02,41.84,101.56,57.73,16.1,15.46,15.18,24.71,14.75,29-.06.62-.11,1.14-.1,1.55.06,2.08.03,6.26,0,11.59-.02,3.14-.04,6.67-.05,10.39l-.03,12.67c-.03.95-.03,1.91-.03,2.9,0,4.19.02,8.74-2.7,13.72-3.35,6.15-19.53,28.69-97.78,51.97-26.54,7.9-57.33-.88-76.95-8.6-7.5-2.65-13.33-5.22-16.61-6.74-.57-.26-1.04-.65-1.42-1.12-.12-.16-.31-.31-.49-.4h0c-.37-.18-.58-.53-.62-.94-.54-6.29-2.08-15.02-4.32-23.74-2.61-9.59-6.07-19.1-9.88-25.29-8.94-14.56-28.01-32.51-43.05-27.59-17.07,5.58-15.83,28.83-15.51,34.38.09,1.63.29,2.72.48,3.8h0c.12.65.23,1.29.33,2.05.02.18.03.35.03.52,0,.28,0,.56.03.84.04.31.07.67.08,1.09.05,1.34-1.38,2.18-2.59,1.59h0c-.35-.17-.74-.21-1.12-.21-.59,0-1.21-.12-1.79-.41l-129.18-62.72c-1.14-.56-1.97-1.62-2.11-2.88-.28-2.55-.26-5.47-.24-8.68h0c.05-9.85.12-22.5-8.13-36.25-7.54-12.57-18.56-20.88-28.58-17.9-10.03,2.98-12.78,13.21-13.34,18.91-.55,5.59-.25,10.73-.07,13.71.07,1.2.12,2.05.09,2.44-.12,1.36-14.52-10.41-15.43-14.89-2.79-13.65-3.34-26.42-1.82-40.27.23-2.14,1.05-7.38,1.71-9.84.16-.6.25-1.23.23-1.86-.22-4.74.67-11.41,2.01-14.28.12-.26.24-.54.37-.84,1.48-3.42,3.78-8.75,21.46-16.23,25.1-10.63,93.42-34.28,96.07-34.83,6.24-1.31,14.24-.75,20.71-.29,3.8.27,7.07.5,9.16.29,30.15-2.97,65.09.97,111.14,23.02,6.17,2.48,12.26,5.31,18.16,8.55,14.74,8.08,27.15,16.65,37.47,24.54,12.05,8.74,21.33,16.6,28,22.24h0s0,0,0,0c2.96,2.51,5.41,4.58,7.35,6.09Z"/>
        <path class="cls-15" d="M389.79,286.64c-16.54-6.5-25.88-27.65-50.56-52.54-1.04-1.04-.67-2.82.71-3.34l102.65-39.04c.29-.11.6-.15.9-.08,2.25.53,13.19,4.18,42.03,28.27,14.88,12.42,17.85,15.66,25.54,20.58,1.22.78,1,2.49-3.49,5.99-14.3,11.14-93.01,49.89-117.78,40.16Z"/>
        <path class="cls-42" d="M271.77,202.95c-22.02-6.57-27.69-6.61-42.9-7.42-10.47-.56-27.09.91-28.92,5.38-1.83,4.47,18.26,18.5,26.58,22.87,4.07,2.14,144.32,68.84,139.88,60.96-5.48-9.71-30.72-37.46-39.34-48.79-14.37-18.89-33.27-26.41-55.29-32.99Z"/>
        <path class="cls-40" d="M221.86,189.8l92.55-35.69s-2.07.69-13.42.53c-3.96-.06-100.01,37.33-100.72,37.91l21.58-2.76Z"/>
        <path class="cls-36" d="M432.14,334.77c-35.46-15.64-55.36-35.28-76.7-53.23,63.65,17.9,196.87,57.08,194.78,59.63-2.62,3.19-12.21,6.97-44.03,9-31.33,2-69.98-13.6-74.04-15.4Z"/>
        <path class="cls-10" d="M569.45,260.1c-2.01-1.57-27.3-26.47-46.24-38.87,15.61,29.02,51.21,92.1,54.54,91.78,4.16-.4,23.19-3.77,28.83-16.04,5.55-12.08-34.61-34.9-37.13-36.87Z"/>
        <path class="cls-19" d="M305.93,288.36c0-.75-.43-1.43-1.13-1.75l-10.54-4.86c-1.36-.63-2.96.37-2.97,1.85v.09c0,.75.43,1.43,1.13,1.75l10.54,4.84c1.36.62,2.96-.37,2.96-1.85v-.07Z"/>
        <path class="cls-19" d="M238.07,259.94c0-.75-.43-1.43-1.13-1.75l-10.54-4.86c-1.36-.63-2.96.37-2.97,1.85v.09c0,.75.44,1.43,1.13,1.75l10.54,4.84c1.36.62,2.96-.37,2.96-1.85v-.07Z"/>
        <path class="cls-16" d="M344.45,367.05l-111.27-51.69c-1.03-.48-1.8-1.36-2.14-2.44-3.1-9.94-8.44-27.87-8.55-31.73-.14-5.11,136.81,56.72,131.98,68.27-1.85,4.43-2.58,8.77-2.73,12.45-.14,3.48-4.13,6.6-7.29,5.13Z"/>
        <path class="cls-3" d="M458.98,271.93l-80.78-55.88c-9.27,2.38-30.39,11.33-34.41,12.76-5.21,1.85-6.08,2.89-6.08,2.89,0,1.49.8,2.14,3.32,4.47,3.62,3.34,5.15,4.88,14.09,15.74,12.89,15.65,22.68,30.21,32.11,33.7,7.5,2.78,19.19,5.21,35.86,0,14.9-4.66,24.08-9.92,35.89-13.67Z"/>
        <g class="cls-53">
          <path class="cls-46" d="M602.37,316.2c-22.09,16.54-71.21,40.18-93.12,43.78"/>
        </g>
        <path class="cls-34" d="M619.19,322.24c4.22-5.39,3.12-9.71,2.51-16.42-.03-.33-.11-.66-.21-.97-1.56-4.92,6.26,6.1,7.07,13.76.27,2.57.09,3.87-.17,6.24-.12,1.08-2.49,7.7-2.14,9.13.35,1.43-.45,11.28-.4,12.77.05,1.49-6.54,12.57-23.8,23.25-14.33,8.87-34.9,14.7-37.01,14.99-2.11.29-4.15-6.41-5.68-6.78-4-.97-15.83,3.15-20.25,4.2-5.15,1.23-17.18,4.06-30.3,2.46-16.24-1.98-18.72-3.73-33.63-11.43-8.33-4.31-14.62-12.04-17.93-17.67-1.43-2.44.69-4.66,3.38-3.81,10.99,3.49,31.11,9.97,53.65,12.16,35.84,3.48,64.19-12.66,68.26-14.99,17.08-9.76,26.04-13.37,36.64-26.88Z"/>
        <g class="cls-51">
          <g>
            <path class="cls-48" d="M529.09,356.2s0,0,0,0h0ZM529.41,357.06c.1.3.2.67.29,1.09.27,1.24.4,2.87-.04,4.54-.43,1.64-1.44,3.4-3.61,4.93-2.19,1.55-5.62,2.91-10.96,3.59-3.15.4-7.52.39-12.01-.42-4.5-.81-9-2.39-12.51-5.05-1.87-1.42-4.21-4.26-6.16-6.9-.65-.88-1.25-1.72-1.75-2.44l46.74.67Z"/>
            <path class="cls-48" d="M621.68,309.02c.33.63.68,1.4.97,2.28.84,2.52,1.2,5.86-.55,9.41-.47.96-1.11,1.53-1.68,1.74-.49.19-1.14.2-1.97-.39-.77-.56-1.8-.75-2.65-.84-.87-.08-1.8-.06-2.65,0l8.53-12.2Z"/>
          </g>
        </g>
      </g>
    </g>
  </g>
  <g id="_Слой_1_копия_" data-name="Слой 1 (копия)">
    <g>
      <path class="cls-33" d="M756.95,221.68c-.41-.93-28.04-4.98-41.8-6.89-5.01,4.1-15.22,12.71-15.98,14.4-.95,2.1.27,18.6,11.24,30.55,10.97,11.95,34.74-6.5,42.3-9.39,7.56-2.89,4.75-27.51,4.24-28.66Z"/>
      <path class="cls-44" d="M556.44,130.82c-.41-.93-28.04-4.98-41.8-6.89-5.01,4.1-15.22,12.71-15.98,14.4-.95,2.11.27,18.6,11.24,30.55,10.97,11.95,34.74-6.5,42.3-9.39,7.56-2.89,4.75-27.51,4.24-28.66Z"/>
      <path class="cls-12" d="M719.17,230.55l25.82-11.77h0c.16-.06.32-.14.48-.21,15.38-6.79,37.68,7.84,49.81,32.67,12.13,24.83,9.49,50.47-5.89,57.26-.2.08-.39.17-.59.25l-24.93,11.38-14.29-28.64c-3.75-4.56-7.15-9.83-10-15.65-2.63-5.38-4.56-10.79-5.82-16.05l-14.59-29.24Z"/>
      <ellipse class="cls-17" cx="741.85" cy="275.23" rx="30.41" ry="50.02" transform="translate(-43.56 371.23) rotate(-27.32)"/>
      <ellipse class="cls-22" cx="740.97" cy="275.27" rx="22.81" ry="37.52" transform="translate(-43.68 370.83) rotate(-27.32)"/>
      <path class="cls-38" d="M742.5,249.39c3.01,1.79,5.96,4.3,8.67,7.39l-6.55,11.15c-.6-.65-1.22-1.22-1.87-1.71l-.25-16.83ZM743.05,286.59c.73.15,1.44.18,2.12.06l10.2,16.26c-.24.13-.49.25-.74.36-3.4,1.5-7.33,1.32-11.34-.21l-.24-16.47ZM740.93,302l-.24-16.31c-.9-.5-1.8-1.16-2.65-1.97l-6.46,10.98c2.94,3.16,6.14,5.65,9.35,7.3ZM740.39,264.81l-.24-16.68c-4.52-2.12-9.04-2.56-12.87-.87-1.07.47-2.04,1.09-2.91,1.83l10.16,16.2c.34-.29.71-.53,1.13-.71,1.41-.62,3.06-.5,4.73.22ZM723.59,282.93c1.81,3.7,3.98,7.04,6.37,9.92l6.43-10.95c-.71-.91-1.37-1.92-1.94-3.02l-11.34,3.05c.15.33.31.66.47.99ZM746.18,269.88l6.58-11.19c2.07,2.64,3.96,5.64,5.56,8.92.36.74.7,1.48,1.02,2.21l-11.43,3.08c-.06-.14-.13-.28-.2-.41-.45-.93-.97-1.8-1.53-2.6ZM722.19,279.81c-1.94-4.75-3.02-9.48-3.28-13.82l13.65,7.26c.18,1.14.49,2.32.94,3.52l-11.31,3.04ZM748.74,275.05c.52,1.6.78,3.17.8,4.61l13.51,7.18c.04-4.58-.9-9.69-2.85-14.88l-11.46,3.08ZM762.92,289.38l-13.62-7.24c-.33,1.5-1,2.73-1.99,3.54l9.99,15.94c3.23-2.63,5.13-6.98,5.62-12.25ZM718.86,263.36l13.54,7.2c.05-1.19.28-2.27.67-3.2l-10.36-16.53c-2.45,3.07-3.75,7.46-3.85,12.53Z"/>
      <path class="cls-12" d="M719.17,230.03l25.82-11.77h0c.16-.07.32-.15.49-.22,15.38-6.79,37.68,7.84,49.81,32.67,12.13,24.83,9.49,50.47-5.89,57.26-.15.07-.3.13-.45.19l-25.07,11.44-14.31-28.67c-3.74-4.55-7.14-9.82-9.98-15.63-2.62-5.37-4.55-10.78-5.82-16.02l-14.6-29.25Z"/>
      <path class="cls-17" d="M713.96,288.01c11.98,24.53,33.97,38.99,49.11,32.3,15.15-6.69,17.72-31.99,5.74-56.52-11.98-24.53-34.64-40.31-49.79-33.62-15.15,6.69-17.05,33.31-5.07,57.83Z"/>
      <ellipse class="cls-11" cx="741.23" cy="275.26" rx="21.4" ry="36.13" transform="translate(-46.16 347.42) rotate(-25.61)"/>
      <path class="cls-32" d="M729.14,286.13c5.06,8.27,12.13,13.64,18.34,14.15l-6.69-13.95c-1.33-.79-2.64-1.95-3.84-3.39l-7.82,3.18ZM725.99,279.95c-4.12-9.88-4.1-19.72-.36-25.26l6.69,13.95c-.33,2.4.04,5.31,1.16,8.26l-7.49,3.05ZM747.84,271.05c-2.72-5.13-7.01-8.37-10.52-8.14l-5.95-12.42c7.71-2.04,18.01,5.37,23.96,17.51l-7.49,3.04ZM750.07,277.61l7.82-3.18c3.21,10.34,1.86,20-3.55,24l-5.95-12.42c1.64-1.78,2.23-4.89,1.68-8.4Z"/>
      <path class="cls-12" d="M523.05,142.34l23.63-6.13h0c.15-.03.31-.07.46-.11,14.04-3.46,30.43,12.1,36.6,34.77,6.17,22.67-.21,43.85-14.25,47.31-.18.04-.35.08-.53.12l-22.84,5.93-7.4-26.27c-2.39-4.36-4.39-9.27-5.83-14.56-1.33-4.88-2.08-9.69-2.29-14.26l-7.55-26.81Z"/>
      <ellipse class="cls-17" cx="534.87" cy="183.25" rx="26.18" ry="42.51" transform="translate(-29.83 155.25) rotate(-16.07)"/>
      <ellipse class="cls-18" cx="534.13" cy="183.15" rx="19.63" ry="31.88" transform="translate(-29.83 155.04) rotate(-16.07)"/>
      <path class="cls-38" d="M539.61,161.6c2.24,1.95,4.32,4.49,6.09,7.49l-7.33,8.43c-.4-.63-.83-1.2-1.28-1.71l2.53-14.21ZM534.03,192.99c.59.23,1.18.36,1.77.36l5.94,15.18c-.22.07-.45.14-.68.19-3.1.76-6.38.04-9.5-1.84l2.47-13.89ZM529.74,205.63l2.44-13.75c-.68-.55-1.32-1.24-1.91-2.04l-7.21,8.29c1.96,3.09,4.24,5.64,6.67,7.5ZM535.32,174.26l2.5-14.07c-3.46-2.44-7.18-3.46-10.67-2.6-.97.24-1.89.62-2.74,1.12l5.91,15.11c.33-.19.68-.34,1.05-.43,1.29-.32,2.66.03,3.95.88ZM518.26,187.06c.92,3.38,2.21,6.51,3.75,9.28l7.18-8.26c-.45-.87-.84-1.82-1.15-2.84l-10.02.91c.08.31.16.61.24.92ZM539.37,179.39l7.36-8.46c1.31,2.53,2.41,5.32,3.23,8.31.18.67.35,1.34.5,2.01l-10.13.92c-.03-.12-.06-.25-.1-.38-.23-.85-.52-1.65-.86-2.4ZM517.59,184.23c-.86-4.28-1-8.41-.52-12.1l10.29,8.09c-.04.99.03,2.03.22,3.11l-10,.9ZM540.68,184.09c.18,1.43.14,2.79-.07,4.01l10.21,8.03c.78-3.85.82-8.29.01-12.95l-10.15.92ZM550.3,198.24l-10.29-8.09c-.52,1.21-1.28,2.15-2.24,2.69l5.82,14.88c3.14-1.74,5.45-5.13,6.71-9.48ZM517.45,169.9l10.21,8.03c.24-1,.6-1.88,1.09-2.6l-6.03-15.41c-2.56,2.23-4.37,5.73-5.27,9.98Z"/>
      <path class="cls-12" d="M539.18,200.4c-3.68-5.43-6.73-11.99-8.71-19.28-1.87-6.88-2.59-13.62-2.29-19.77l-5.19-18.41,12.52-3.25c2.51-2.94,5.61-4.99,9.2-5.88,14.04-3.46,30.43,12.1,36.6,34.77,5.9,21.65.34,41.95-12.41,46.74l.42,1.49-23.26,8.03-6.88-24.44Z"/>
      <ellipse class="cls-17" cx="534.58" cy="184.02" rx="26.09" ry="42.37" transform="translate(-30.05 155.2) rotate(-16.07)"/>
      <g>
        <ellipse class="cls-8" cx="534.08" cy="183.97" rx="18.42" ry="30.79" transform="translate(-30.07 155.29) rotate(-16.1)"/>
        <path class="cls-32" d="M520.83,188.9c2.64,8.28,7.75,14.58,13.07,16.6l-3.03-12.94c-1.2-1.23-2.27-2.88-3.06-4.82l-6.98,1.15ZM519.45,183.03c-1.26-8.37.59-15.79,4.66-19.27l3.03,12.94c-.55,1.45-.79,3.24-.68,5.18l-7.01,1.16ZM539.19,179.77c-1.56-3.61-4.1-6.17-6.61-6.69l-2.67-11.4c6.32.17,13.05,7.12,16.28,16.94l-7,1.15ZM540.65,185.62l6.96-1.15c1.65,10.25-1.36,19.15-7.39,21.25l-2.67-11.4c2.22-1.29,3.41-4.69,3.09-8.7Z"/>
      </g>
      <path class="cls-1" d="M966.48,254.1c3.46-6.59,2.5-12.42,2.6-17.7l-.2-13.46c-.16-10.69-.18-19.85-.34-23.35-.16-3.51,3.77-13.71-16.13-32.25-17.87-16.65-56.88-35.72-66.56-38.04-9.68-2.32-51.34-57.4-66.69-68.08C773.31,29.33,657.83-.37,629.38,0c-16.49-.44-84.92,32.96-92.53,37.56-39.39,23.78-12.68,14.06-41.51,49.8-1.93,1.94-3.1,11.96-2.6,17-.7,1.84-2.26,5.65-2.4,6.33-.9,4.19,2.3,24.91,2.36,28.94.07,4.72-.79,13.29.26,18.04,1.06,4.75,13.87,15.97,13.97,14.53-.08-5.29.28-6.25,1.62-14.73,3.66-13.25,10.27-19.19,15.58-20.32,11.12-2.37,21.37,1.85,29.62,15.09,15.88,25.51,9.6,41.71,11.89,52.54l142.52,67.77c-1.43-7.52-1.1-4.28-1.45-8.99-.43-5.89-.76-33.65,17.28-39.82,15.89-5.44,36.48,13.37,46.25,28.71,8.2,12.87,14.79,39.38,16.1,53.44,7.55,3.53,35.2,17.93,77.2,4.81,82.72-25.83,99.49-50.01,102.94-56.59Z"/>
      <g class="cls-52">
        <g>
          <path class="cls-13" d="M745.27,174.35c-13.23-9.41-12.73-21.38-32.11-54.25-2.11-3.58-.64-8.23,3.18-9.82l100.81-42.09c2.46-1.03,5.6-1.19,7.6.59,3.95,3.51,12.31,12.01,29.95,32.27,12.58,14.44,14.98,18.06,24.31,26.77,1.11,1.04-1.07,3.86-5.77,7.63-14.99,12.04-105.16,55.12-127.97,38.9Z"/>
          <path class="cls-43" d="M616.94,72.79c-29.63-13.33-37.74-14.88-58.23-7.17-10.36,3.9-23.18,8.21-24.92,14.98-1.74,6.77,28.75,22.45,37.67,26.98,4.36,2.21,159.86,77.6,156.53,68.64-4.09-10.99-26.29-54.97-34.45-66.06-5.26-7.14-46.96-24.03-76.59-37.36Z"/>
          <path class="cls-24" d="M784.58,230.76c-37.97-16.12-59.48-36.71-82.48-55.48,67.96,18.13,210.24,57.88,208.06,60.62-2.73,3.42-12.84,7.57-46.62,10.18-33.25,2.57-74.61-13.47-78.96-15.32Z"/>
          <path class="cls-26" d="M929.1,149.5c-2.17-1.64-29.49-27.74-49.85-40.65,17.12,30.61,56.11,97.13,59.64,96.75,4.41-.48,24.58-4.33,30.34-17.45,5.67-12.91-37.42-36.6-40.13-38.65Z"/>
          <path class="cls-19" d="M652.98,166.24c-.01-.81-.5-1.53-1.25-1.87l-11.2-4.98c-1.49-.66-3.21.44-3.18,2.04h0c.01.82.5,1.54,1.26,1.88l11.21,4.96c1.48.65,3.19-.44,3.17-2.04h0Z"/>
          <path class="cls-19" d="M580.34,137c-.01-.81-.5-1.54-1.25-1.87l-11.2-4.98c-1.49-.66-3.21.44-3.18,2.04h0c.01.82.5,1.54,1.26,1.88l11.21,4.96c1.48.65,3.19-.44,3.17-2.04h0Z"/>
          <path class="cls-3" d="M833.55,156.91l-81.36-61.09c-9.81,2.66-32.01,12.7-36.26,14.28-5.5,2.04-5.24,5.06-5.24,5.06.02,1.58-.19.48,1.61,3.59,2.99,5.17,5.39,9.78,11.87,23.1,11.13,22.88,13.51,28.64,22.82,33.77,7.01,3.86,21.61,4.44,39.23-1.33,15.75-5.16,33.81-11.38,47.33-17.37Z"/>
          <g class="cls-53">
            <path class="cls-49" d="M949.94,183.97c-23.17,17.88-74.92,43.68-98.14,47.82"/>
          </g>
          <path class="cls-21" d="M958.34,193.78c4.46-5.88,3.14-10.52,2.36-17.8-.02-.23-.08-.47-.16-.68-2-5.66,6.75,6.19,7.77,14.47.34,2.75.17,4.14-.06,6.68-.11,1.16-4.1,8.9-3.7,10.42.4,1.52.14,13.06.21,14.65.08,1.59-5.6,11.96-23.88,23.64-15.19,9.71-37.1,16.23-39.35,16.57-2.25.34-4.57-6.81-6.21-7.18-4.3-.98-16.89,3.59-21.6,4.78-5.49,1.39-18.32,4.59-32.4,3.06-17.42-1.89-20.11-3.73-36.22-11.77-10.07-5.03-17.47-14.67-20.68-20.69-.92-1.74.59-3.34,2.47-2.77,11.18,3.35,34.12,10.78,59.9,12.94,38.44,3.22,68.5-14.47,72.81-17.01,18.11-10.69,27.64-14.68,38.74-29.3Z"/>
          <g class="cls-54">
            <g>
              <path class="cls-47" d="M812.8,232.29l50.06.05c.11.32.23.71.33,1.16.31,1.32.48,3.06.04,4.85-.43,1.76-1.48,3.65-3.77,5.32-2.32,1.69-5.97,3.2-11.67,4-3.36.47-8.04.52-12.87-.28-4.83-.8-9.68-2.44-13.49-5.23-2.03-1.49-4.59-4.51-6.73-7.3-.71-.93-1.36-1.82-1.91-2.59Z"/>
              <path class="cls-47" d="M960.78,179.6c.36.67.75,1.49,1.08,2.42.95,2.69,1.39,6.26-.41,10.08-.49,1.03-1.16,1.65-1.76,1.89-.52.21-1.22.23-2.12-.4-.84-.58-1.94-.78-2.86-.86-.93-.08-1.93-.04-2.83.03l8.9-13.17Z"/>
            </g>
          </g>
        </g>
      </g>
    </g>
  </g>
</svg>