<svg width="678" height="581" viewBox="0 0 678 581" fill="none" xmlns="http://www.w3.org/2000/svg">
<path d="M495.011 389.343C519.415 382.994 564.012 365.114 580.234 351.476C598.899 337.242 561.438 319.913 557.007 317.331C552.577 314.749 334.37 205.529 296.255 188.521C258.141 171.514 135.179 202.501 105.209 217.344C80.7793 229.444 97.5631 238.821 100.709 241.372C103.855 243.923 285.336 345.619 350.709 376.898C400.216 400.585 447.108 401.806 495.011 389.343Z" fill="black" fill-opacity="0.1"/>
<path fill-rule="evenodd" clip-rule="evenodd" d="M323.086 276.171L347.822 266.011L347.828 266.024C347.986 265.956 348.146 265.89 348.307 265.826C363.036 259.981 383.434 274.517 393.87 298.295C404.305 322.072 400.824 346.086 386.096 351.931C385.892 352.012 385.687 352.089 385.481 352.163L361.633 361.973L349.276 334.467C345.951 330.064 342.971 325.015 340.534 319.463C338.287 314.342 336.685 309.211 335.702 304.252L323.086 276.171Z" fill="black"/>
<ellipse cx="28.4677" cy="47.3696" rx="28.4677" ry="47.3696" transform="matrix(-0.936776 0.371787 0.398567 0.908153 350.469 265.381)" fill="black"/>
<g filter="url(#filter0_i_59_6)">
<ellipse cx="21.3518" cy="35.5288" rx="21.3518" ry="35.5288" transform="matrix(-0.936776 0.371787 0.398567 0.908153 347.687 278.784)" fill="url(#paint0_linear_59_6)"/>
</g>
<g filter="url(#filter1_di_59_6)">
<path fill-rule="evenodd" clip-rule="evenodd" d="M344.145 294.595C346.96 296.396 349.703 298.897 352.178 301.96L345.575 312.223C344.987 311.534 344.363 310.926 343.722 310.41L344.145 294.595ZM343.206 329.666C344.009 329.889 344.8 329.945 345.548 329.815L354.476 345.42C354.197 345.559 353.912 345.687 353.619 345.803C350.316 347.114 346.556 346.781 342.792 345.128L343.206 329.666ZM340.782 344.12L341.193 328.78C340.321 328.255 339.463 327.556 338.658 326.71L332.169 336.796C334.836 339.935 337.784 342.431 340.782 344.12ZM341.719 309.131L342.139 293.436C337.971 291.289 333.746 290.722 330.083 292.176C329.061 292.581 328.125 293.128 327.278 293.799L336.196 309.386C336.523 309.127 336.884 308.917 337.279 308.76C338.63 308.224 340.179 308.396 341.719 309.131ZM325.229 325.586C326.785 329.132 328.697 332.347 330.832 335.138L337.305 325.077C336.64 324.158 336.037 323.13 335.525 322.014L324.76 324.481C324.911 324.849 325.067 325.218 325.229 325.586ZM346.866 313.953L353.485 303.665C355.373 306.258 357.068 309.19 358.473 312.392C358.783 313.098 359.073 313.804 359.344 314.51L348.465 317.002C348.41 316.87 348.354 316.738 348.296 316.606C347.879 315.656 347.397 314.768 346.866 313.953ZM324.035 322.6C322.37 317.993 321.537 313.447 321.486 309.308L334.01 316.591C334.123 317.729 334.378 318.926 334.783 320.138L324.035 322.6ZM349.127 318.897C349.582 320.479 349.784 322.019 349.745 323.422L362.18 330.654C362.399 326.303 361.702 321.403 360.023 316.4L349.127 318.897ZM361.984 332.86L349.469 325.582C349.113 327.051 348.421 328.247 347.419 329.004L356.2 344.353C359.372 341.964 361.339 337.87 361.984 332.86ZM321.54 307.019L333.982 314.256C334.083 313.057 334.37 311.978 334.832 311.083L325.765 295.234C323.272 298.042 321.833 302.18 321.54 307.019Z" fill="#4C4C4C"/>
</g>
<path fill-rule="evenodd" clip-rule="evenodd" d="M323.116 275.681L347.851 265.521L347.853 265.527C348.006 265.462 348.159 265.398 348.314 265.337C363.042 259.492 383.441 274.028 393.876 297.806C404.311 321.583 400.83 345.597 386.102 351.443C385.954 351.501 385.805 351.558 385.655 351.613L361.662 361.483L349.34 334.055C345.992 329.634 342.991 324.559 340.54 318.974C338.279 313.821 336.671 308.658 335.689 303.67L323.116 275.681Z" fill="black"/>
<path d="M315.728 329.561C326.155 353.32 346.548 367.842 361.276 361.996C376.004 356.151 379.491 332.152 369.064 308.393C358.637 284.635 337.653 268.833 322.925 274.679C308.197 280.524 305.301 305.803 315.728 329.561Z" fill="#2D2C2C"/>
<g filter="url(#filter2_i_59_6)">
<ellipse cx="20.2029" cy="33.9154" rx="20.2029" ry="33.9154" transform="matrix(-0.924077 0.378051 0.38881 0.9223 347.586 280.074)" fill="url(#paint1_linear_59_6)"/>
</g>
<g filter="url(#filter3_di_59_6)">
<path fill-rule="evenodd" clip-rule="evenodd" d="M330.063 328.345C334.645 336.802 341.489 342.367 347.559 342.787L341.979 329.818C340.386 328.965 338.814 327.526 337.469 325.654L330.063 328.345ZM327.58 322.863C323.981 313.144 324.515 303.624 328.569 298.654L334.148 311.618C333.505 313.993 333.67 317.085 334.733 320.263L327.58 322.863ZM348.474 315.269C346.117 310.351 342.206 307.146 338.891 307.248L333.777 295.362C341.113 293.707 350.509 301.04 355.637 312.665L348.474 315.269ZM350.248 321.009L357.665 318.313C360.463 328.337 358.849 337.618 353.516 341.238L348.4 329.346C350.091 327.649 350.754 324.538 350.248 321.009Z" fill="#A9A8A8"/>
</g>
<path fill-rule="evenodd" clip-rule="evenodd" d="M141.735 184.162L163.419 179.399L163.423 179.412C163.56 179.38 163.699 179.349 163.838 179.32C176.718 176.65 191.01 191.338 195.761 212.126C200.511 232.914 193.922 251.93 181.042 254.6C180.853 254.639 180.664 254.674 180.474 254.706L159.602 259.302L153.879 235.236C151.864 231.185 150.231 226.657 149.12 221.794C148.095 217.309 147.598 212.907 147.578 208.734L141.735 184.162Z" fill="black"/>
<ellipse cx="23.4237" cy="39.266" rx="23.4237" ry="39.266" transform="matrix(-0.99559 0.206379 0.218901 0.957834 165.641 179.262)" fill="black"/>
<g filter="url(#filter4_i_59_6)">
<ellipse cx="17.5686" cy="29.4509" rx="17.5686" ry="29.4509" transform="matrix(-0.99559 0.206379 0.218901 0.957834 161.293 189.756)" fill="url(#paint2_linear_59_6)"/>
</g>
<g filter="url(#filter5_di_59_6)">
<path fill-rule="evenodd" clip-rule="evenodd" d="M155.931 202.097C157.936 203.957 159.771 206.376 161.302 209.213L154.322 216.626C153.954 215.986 153.545 215.405 153.107 214.896L155.931 202.097ZM149.672 230.462C150.287 230.753 150.918 230.909 151.544 230.908L156.35 244.843C156.105 244.916 155.856 244.978 155.602 245.031C152.714 245.63 149.712 244.829 146.915 242.956L149.672 230.462ZM145.432 241.847L148.167 229.454C147.542 228.907 146.956 228.221 146.436 227.423L139.592 234.692C141.265 237.613 143.265 240.053 145.432 241.847ZM151.673 213.566L154.475 200.866C151.428 198.537 148.088 197.482 144.887 198.146C143.992 198.331 143.145 198.644 142.352 199.07L147.151 212.987C147.455 212.825 147.779 212.707 148.122 212.636C149.305 212.39 150.537 212.75 151.673 213.566ZM135.709 224.602C136.418 227.702 137.467 230.584 138.764 233.152L145.589 225.902C145.19 225.057 144.859 224.131 144.617 223.146L135.5 223.63C135.565 223.953 135.635 224.277 135.709 224.602ZM155.101 218.219L162.098 210.786C163.224 213.158 164.141 215.778 164.78 218.575C164.921 219.192 165.046 219.807 165.156 220.418L155.917 220.908C155.893 220.794 155.869 220.679 155.842 220.564C155.654 219.739 155.403 218.953 155.101 218.219ZM135.207 222.008C134.577 218.032 134.612 214.223 135.218 210.854L144.239 218.529C144.152 219.471 144.172 220.481 144.311 221.524L135.207 222.008ZM156.157 222.533C156.281 223.886 156.203 225.169 155.951 226.306L164.927 233.942C165.789 230.435 165.992 226.349 165.41 222.042L156.157 222.533ZM164.424 235.701L155.391 228.017C154.873 229.16 154.125 230.034 153.195 230.51L157.923 244.219C160.875 242.727 163.114 239.68 164.424 235.701ZM135.619 209.007L144.583 216.634C144.853 215.673 145.256 214.836 145.773 214.174L140.893 200.026C138.43 201.957 136.614 205.117 135.619 209.007Z" fill="#4C4C4C"/>
</g>
<path fill-rule="evenodd" clip-rule="evenodd" d="M153.797 235.781C151.777 231.726 150.141 227.191 149.028 222.322C148.002 217.83 147.505 213.421 147.486 209.242L141.65 184.698L163.334 179.936L163.335 179.939C163.472 179.907 163.609 179.877 163.747 179.848C176.626 177.178 190.918 191.866 195.669 212.654C200.42 233.441 193.83 252.458 180.951 255.128C180.837 255.151 180.723 255.173 180.609 255.194L159.517 259.839L153.797 235.781Z" fill="black"/>
<ellipse cx="23.684" cy="39.7024" rx="23.684" ry="39.7024" transform="matrix(-0.99559 0.206379 0.218901 0.957834 165.732 178.868)" fill="#2C2C2C"/>
<g filter="url(#filter6_i_59_6)">
<g filter="url(#filter7_i_59_6)">
<ellipse cx="16.4865" cy="28.4293" rx="16.4865" ry="28.4293" transform="matrix(-0.981754 0.258096 0.289458 0.941106 157.303 193.323)" fill="url(#paint3_linear_59_6)"/>
</g>
<g filter="url(#filter8_di_59_6)">
<path fill-rule="evenodd" clip-rule="evenodd" d="M137.839 230.332C140.572 237.684 145.467 243.05 150.37 244.269L147.335 232.951C146.201 232.062 145.152 230.76 144.313 229.174L137.839 230.332ZM136.423 225.454C134.658 217.167 136.237 209.601 140.14 206.116L143.175 217.437C142.408 219.251 142.191 221.704 142.662 224.338L136.423 225.454ZM154.624 222.198C153.278 217.893 150.432 214.763 147.675 214.404L144.914 204.108C151.177 203.776 158.038 210.991 160.845 221.085L154.624 222.198ZM155.384 227.193L161.84 226.038C162.883 234.472 160.407 241.692 155.575 243.866L152.815 233.573C154.412 232.455 155.345 230.074 155.384 227.193Z" fill="#A9A8A8"/>
</g>
</g>
<g filter="url(#filter9_ii_59_6)">
<path fill-rule="evenodd" clip-rule="evenodd" d="M463.971 180.658C465.016 181.293 465.945 181.736 466.762 181.965C475.778 184.486 550.756 225.842 566.908 242.125C582.627 257.971 581.485 267.189 580.955 271.468C580.878 272.086 580.814 272.601 580.816 273.018C580.824 275.098 580.696 279.28 580.532 284.601C580.436 287.735 580.328 291.263 580.228 294.99L579.889 307.652C579.832 308.597 579.811 309.563 579.789 310.548C579.696 314.733 579.596 319.283 576.756 324.203C573.255 330.268 556.544 352.411 477.751 373.807C451.025 381.064 420.457 371.546 401.032 363.36C393.598 360.528 387.831 357.82 384.593 356.219C384.033 355.942 383.564 355.545 383.204 355.066C383.083 354.905 382.903 354.748 382.725 354.655V354.655C382.36 354.465 382.154 354.113 382.129 353.702C381.746 347.397 380.415 338.641 378.377 329.864C375.994 320.213 372.765 310.628 369.108 304.34C360.52 289.574 341.893 271.169 326.735 275.724C309.534 280.894 310.221 304.167 310.401 309.725C310.453 311.359 310.624 312.452 310.792 313.532L310.792 313.534C310.894 314.185 310.995 314.832 311.068 315.589C311.086 315.768 311.09 315.942 311.082 316.112C311.068 316.392 311.059 316.673 311.086 316.952C311.117 317.263 311.137 317.621 311.144 318.042C311.164 319.384 309.708 320.189 308.518 319.57V319.57C308.176 319.392 307.786 319.338 307.4 319.332C306.806 319.323 306.196 319.181 305.617 318.882L177.98 253.071C176.851 252.488 176.046 251.409 175.94 250.143C175.726 247.583 175.812 244.671 175.906 241.46L175.906 241.459C176.196 231.619 176.568 218.971 168.65 205.029C161.413 192.286 150.601 183.707 140.505 186.445C130.408 189.183 127.41 199.342 126.712 205.024C126.026 210.603 126.207 215.743 126.312 218.724C126.355 219.924 126.385 220.774 126.341 221.162C126.188 222.515 112.08 210.406 111.273 205.902C108.817 192.194 108.57 179.408 110.422 165.599C110.708 163.462 111.648 158.248 112.369 155.799C112.546 155.198 112.653 154.575 112.639 153.949C112.537 149.21 113.58 142.56 114.989 139.719C115.119 139.458 115.246 139.182 115.379 138.892C116.937 135.513 119.37 130.234 137.22 123.178C162.565 113.159 231.44 91.1544 234.095 90.6652C240.369 89.5094 248.344 90.2626 254.801 90.8725C258.59 91.2303 261.855 91.5387 263.947 91.3831C294.163 89.1355 328.993 93.9194 374.5 117.066C380.604 119.696 386.628 122.674 392.449 126.048C406.989 134.477 419.191 143.348 429.319 151.485C441.151 160.513 450.245 168.593 456.774 174.393L456.774 174.393L456.774 174.394C459.675 176.971 462.069 179.098 463.971 180.658Z" fill="url(#paint4_linear_59_6)"/>
</g>
<g filter="url(#filter10_ddi_59_6)">
<path d="M341.638 227.033C325.255 220.139 316.428 198.77 292.357 173.289C291.347 172.22 291.758 170.455 293.145 169.966L396.708 133.41C396.999 133.307 397.307 133.275 397.606 133.353C399.84 133.939 410.689 137.849 438.942 162.627C453.513 175.406 456.41 178.713 463.978 183.816C465.175 184.624 464.917 186.331 460.35 189.718C445.79 200.516 366.162 237.352 341.638 227.033Z" fill="url(#paint5_linear_59_6)"/>
</g>
<g filter="url(#filter11_di_59_6)">
<path d="M225.669 140.527C203.814 133.425 198.145 133.251 182.958 132.073C172.507 131.262 155.852 132.329 153.92 136.751C151.987 141.173 171.729 155.682 179.939 160.249C183.951 162.482 322.563 232.542 318.309 224.553C313.069 214.711 288.496 186.366 280.153 174.833C266.244 155.603 247.524 147.628 225.669 140.527Z" fill="url(#paint6_linear_59_6)"/>
</g>
<g filter="url(#filter12_di_59_6)">
<path d="M176.086 126.178L269.469 92.7235C269.469 92.7235 267.379 93.3658 256.042 92.9347C252.086 92.7842 155.159 127.849 154.443 128.416L176.086 126.178Z" fill="url(#paint7_linear_59_6)"/>
</g>
<g filter="url(#filter13_f_59_6)">
<path d="M382.816 276.162C347.738 259.67 328.318 239.559 307.414 221.101C370.616 240.528 502.858 282.896 500.701 285.394C498.005 288.517 488.331 292.066 456.467 293.333C425.096 294.581 386.832 278.05 382.816 276.162Z" fill="url(#paint8_linear_59_6)" fill-opacity="0.21"/>
</g>
<g filter="url(#filter14_f_59_6)">
<path d="M521.886 204.815C519.911 203.194 495.234 177.692 476.59 164.843C491.498 194.23 525.571 258.145 528.905 257.91C533.072 257.615 552.184 254.697 558.115 242.566C563.954 230.623 524.354 206.84 521.886 204.815Z" fill="url(#paint9_linear_59_6)" fill-opacity="0.13"/>
</g>
<g filter="url(#filter15_di_59_6)">
<path d="M257.759 226.729C257.779 225.978 257.359 225.291 256.674 224.955L246.258 219.84C244.915 219.18 243.287 220.138 243.247 221.612L243.245 221.703C243.225 222.455 243.646 223.143 244.332 223.478L254.748 228.574C256.092 229.231 257.717 228.273 257.757 226.8L257.759 226.729Z" fill="#323232"/>
</g>
<g filter="url(#filter16_di_59_6)">
<path d="M190.606 196.684C190.626 195.933 190.206 195.246 189.521 194.91L179.106 189.795C177.762 189.135 176.134 190.093 176.095 191.567L176.092 191.658C176.072 192.41 176.493 193.098 177.179 193.433L187.596 198.528C188.939 199.186 190.564 198.227 190.604 196.755L190.606 196.684Z" fill="#323232"/>
</g>
<g filter="url(#filter17_f_59_6)">
<path d="M294.381 306.32L184.388 251.965C183.373 251.463 182.616 250.562 182.305 249.474C179.44 239.463 174.535 221.407 174.524 217.551C174.508 212.444 309.928 277.545 304.82 288.977C302.863 293.36 302.03 297.684 301.794 301.362C301.572 304.84 297.506 307.864 294.381 306.32Z" fill="url(#paint10_linear_59_6)" fill-opacity="0.12"/>
</g>
<path d="M411.161 213.985L331.751 156.176C322.422 158.331 301.096 166.771 297.04 168.104C291.785 169.833 290.892 170.845 290.892 170.845C290.852 172.334 291.637 173.005 294.101 175.394C297.635 178.818 299.128 180.391 307.812 191.468C320.319 207.421 329.765 222.211 339.101 225.93C346.529 228.889 358.165 231.6 374.956 226.792C389.964 222.495 399.267 217.456 411.161 213.985Z" fill="#C4C4C4" fill-opacity="0.2"/>
<g opacity="0.17" filter="url(#filter18_f_59_6)">
<path d="M553.443 261.696C530.957 277.696 481.286 300.148 459.294 303.225" stroke="url(#paint11_linear_59_6)" stroke-width="66.5217" stroke-linecap="round" stroke-linejoin="round"/>
</g>
<g filter="url(#filter19_ddii_59_6)">
<path d="M570.113 268.131C574.464 262.847 573.47 258.502 573.019 251.775C572.997 251.446 572.928 251.116 572.836 250.799C571.394 245.841 578.95 257.052 579.576 264.729C579.785 267.302 579.576 268.598 579.259 270.961C579.114 272.042 576.584 278.603 576.895 280.04C577.206 281.477 576.175 291.305 576.188 292.794C576.201 294.283 569.349 305.198 551.84 315.463C537.295 323.99 516.597 329.319 514.483 329.555C512.37 329.792 510.485 323.046 508.966 322.639C504.991 321.575 493.063 325.405 488.623 326.351C483.442 327.454 471.354 329.993 458.269 328.079C442.084 325.711 439.646 323.902 424.925 315.838C416.697 311.331 410.601 303.453 407.43 297.739C406.058 295.268 408.227 293.095 410.899 294.016C421.797 297.771 441.757 304.734 464.24 307.467C499.982 311.811 528.719 296.35 532.836 294.128C550.142 284.784 559.192 281.393 570.113 268.131Z" fill="#272727"/>
</g>
<mask id="mask0_59_6" style="mask-type:alpha" maskUnits="userSpaceOnUse" x="407" y="256" width="175" height="74">
<path d="M570.112 268.062C571.895 265.893 572.851 263.518 573.263 261.122C573.952 257.119 578.035 255.003 579.546 258.788C580.59 261.4 581.114 263.553 581.309 265.003C581.52 267.577 581.41 269.205 581.094 271.569C580.95 272.65 576.589 278.53 576.901 279.967C577.213 281.404 576.189 291.232 576.203 292.721C576.217 294.211 569.372 305.13 551.87 315.405C537.332 323.941 516.637 329.283 514.523 329.52C512.41 329.758 510.521 323.013 509.001 322.607C505.026 321.545 493.1 325.383 488.661 326.331C483.481 327.437 471.395 329.984 458.308 328.078C442.122 325.72 439.682 323.912 424.956 315.857C416.725 311.355 410.623 303.48 407.448 297.768C406.075 295.299 408.243 293.125 410.917 294.044C421.818 297.792 441.781 304.743 464.265 307.462C500.01 311.785 528.736 296.307 532.852 294.081C550.152 284.727 559.2 281.33 570.112 268.062Z" fill="#999999"/>
</mask>
<g mask="url(#mask0_59_6)">
<g filter="url(#filter20_d_59_6)">
<path d="M479.224 299.921C479.223 299.921 479.224 299.921 479.224 299.922L479.224 299.921ZM479.524 300.788C479.613 301.091 479.708 301.464 479.788 301.888C480.023 303.135 480.118 304.764 479.636 306.422C479.163 308.047 478.113 309.781 475.915 311.26C473.688 312.758 470.222 314.036 464.874 314.585C461.718 314.91 457.348 314.791 452.878 313.875C448.402 312.958 443.938 311.264 440.495 308.525C438.658 307.062 436.384 304.159 434.501 301.482C433.869 300.583 433.294 299.73 432.812 298.996L479.524 300.788Z" stroke="white" stroke-opacity="0.9" stroke-width="2.99939"/>
</g>
<g filter="url(#filter21_d_59_6)">
<path d="M572.927 254.975C573.241 255.613 573.572 256.392 573.844 257.28C574.622 259.822 574.903 263.172 573.071 266.676C572.576 267.623 571.927 268.175 571.353 268.38C570.855 268.557 570.204 268.552 569.389 267.936C568.629 267.362 567.608 267.14 566.757 267.038C565.89 266.935 564.954 266.932 564.11 266.969L572.927 254.975Z" stroke="white" stroke-opacity="0.9" stroke-width="2.99939"/>
</g>
</g>
<defs>
<filter id="filter0_i_59_6" x="317.337" y="285.752" width="49.0181" height="66.4712" filterUnits="userSpaceOnUse" color-interpolation-filters="sRGB">
<feFlood flood-opacity="0" result="BackgroundImageFix"/>
<feBlend mode="normal" in="SourceGraphic" in2="BackgroundImageFix" result="shape"/>
<feColorMatrix in="SourceAlpha" type="matrix" values="0 0 0 0 0 0 0 0 0 0 0 0 0 0 0 0 0 0 127 0" result="hardAlpha"/>
<feMorphology radius="1.0079" operator="erode" in="SourceAlpha" result="effect1_innerShadow_59_6"/>
<feOffset/>
<feGaussianBlur stdDeviation="0.503952"/>
<feComposite in2="hardAlpha" operator="arithmetic" k2="-1" k3="1"/>
<feColorMatrix type="matrix" values="0 0 0 0 0 0 0 0 0 0 0 0 0 0 0 0 0 0 0.25 0"/>
<feBlend mode="normal" in2="shape" result="effect1_innerShadow_59_6"/>
</filter>
<filter id="filter1_di_59_6" x="318.462" y="291.168" width="44.3616" height="57.4568" filterUnits="userSpaceOnUse" color-interpolation-filters="sRGB">
<feFlood flood-opacity="0" result="BackgroundImageFix"/>
<feColorMatrix in="SourceAlpha" type="matrix" values="0 0 0 0 0 0 0 0 0 0 0 0 0 0 0 0 0 0 127 0" result="hardAlpha"/>
<feOffset dy="0.403162"/>
<feGaussianBlur stdDeviation="0.302371"/>
<feColorMatrix type="matrix" values="0 0 0 0 1 0 0 0 0 1 0 0 0 0 1 0 0 0 0.41 0"/>
<feBlend mode="normal" in2="BackgroundImageFix" result="effect1_dropShadow_59_6"/>
<feBlend mode="normal" in="SourceGraphic" in2="effect1_dropShadow_59_6" result="shape"/>
<feColorMatrix in="SourceAlpha" type="matrix" values="0 0 0 0 0 0 0 0 0 0 0 0 0 0 0 0 0 0 127 0" result="hardAlpha"/>
<feOffset dx="-3.02371" dy="2.01581"/>
<feGaussianBlur stdDeviation="1.51186"/>
<feComposite in2="hardAlpha" operator="arithmetic" k2="-1" k3="1"/>
<feColorMatrix type="matrix" values="0 0 0 0 0 0 0 0 0 0 0 0 0 0 0 0 0 0 0.25 0"/>
<feBlend mode="normal" in2="shape" result="effect2_innerShadow_59_6"/>
</filter>
<filter id="filter2_i_59_6" x="319.245" y="286.786" width="45.7168" height="64.4132" filterUnits="userSpaceOnUse" color-interpolation-filters="sRGB">
<feFlood flood-opacity="0" result="BackgroundImageFix"/>
<feBlend mode="normal" in="SourceGraphic" in2="BackgroundImageFix" result="shape"/>
<feColorMatrix in="SourceAlpha" type="matrix" values="0 0 0 0 0 0 0 0 0 0 0 0 0 0 0 0 0 0 127 0" result="hardAlpha"/>
<feMorphology radius="2.49949" operator="erode" in="SourceAlpha" result="effect1_innerShadow_59_6"/>
<feOffset/>
<feGaussianBlur stdDeviation="1.24975"/>
<feComposite in2="hardAlpha" operator="arithmetic" k2="-1" k3="1"/>
<feColorMatrix type="matrix" values="0 0 0 0 0 0 0 0 0 0 0 0 0 0 0 0 0 0 0.25 0"/>
<feBlend mode="normal" in2="shape" result="effect1_innerShadow_59_6"/>
</filter>
<filter id="filter3_di_59_6" x="321.98" y="294.916" width="38.1049" height="50.0017" filterUnits="userSpaceOnUse" color-interpolation-filters="sRGB">
<feFlood flood-opacity="0" result="BackgroundImageFix"/>
<feColorMatrix in="SourceAlpha" type="matrix" values="0 0 0 0 0 0 0 0 0 0 0 0 0 0 0 0 0 0 127 0" result="hardAlpha"/>
<feOffset dy="0.852431"/>
<feGaussianBlur stdDeviation="0.53277"/>
<feColorMatrix type="matrix" values="0 0 0 0 1 0 0 0 0 1 0 0 0 0 1 0 0 0 0.59 0"/>
<feBlend mode="normal" in2="BackgroundImageFix" result="effect1_dropShadow_59_6"/>
<feBlend mode="normal" in="SourceGraphic" in2="effect1_dropShadow_59_6" result="shape"/>
<feColorMatrix in="SourceAlpha" type="matrix" values="0 0 0 0 0 0 0 0 0 0 0 0 0 0 0 0 0 0 127 0" result="hardAlpha"/>
<feOffset dx="-3.19662" dy="2.13108"/>
<feGaussianBlur stdDeviation="1.59831"/>
<feComposite in2="hardAlpha" operator="arithmetic" k2="-1" k3="1"/>
<feColorMatrix type="matrix" values="0 0 0 0 0 0 0 0 0 0 0 0 0 0 0 0 0 0 0.25 0"/>
<feBlend mode="normal" in2="shape" result="effect2_innerShadow_59_6"/>
</filter>
<filter id="filter4_i_59_6" x="131.603" y="193.147" width="37.2927" height="56.8885" filterUnits="userSpaceOnUse" color-interpolation-filters="sRGB">
<feFlood flood-opacity="0" result="BackgroundImageFix"/>
<feBlend mode="normal" in="SourceGraphic" in2="BackgroundImageFix" result="shape"/>
<feColorMatrix in="SourceAlpha" type="matrix" values="0 0 0 0 0 0 0 0 0 0 0 0 0 0 0 0 0 0 127 0" result="hardAlpha"/>
<feMorphology radius="0.83234" operator="erode" in="SourceAlpha" result="effect1_innerShadow_59_6"/>
<feOffset/>
<feGaussianBlur stdDeviation="0.41617"/>
<feComposite in2="hardAlpha" operator="arithmetic" k2="-1" k3="1"/>
<feColorMatrix type="matrix" values="0 0 0 0 0 0 0 0 0 0 0 0 0 0 0 0 0 0 0.25 0"/>
<feBlend mode="normal" in2="shape" result="effect1_innerShadow_59_6"/>
</filter>
<filter id="filter5_di_59_6" x="132.252" y="197.784" width="33.9879" height="49.1072" filterUnits="userSpaceOnUse" color-interpolation-filters="sRGB">
<feFlood flood-opacity="0" result="BackgroundImageFix"/>
<feColorMatrix in="SourceAlpha" type="matrix" values="0 0 0 0 0 0 0 0 0 0 0 0 0 0 0 0 0 0 127 0" result="hardAlpha"/>
<feOffset dy="0.332936"/>
<feGaussianBlur stdDeviation="0.249702"/>
<feColorMatrix type="matrix" values="0 0 0 0 1 0 0 0 0 1 0 0 0 0 1 0 0 0 0.41 0"/>
<feBlend mode="normal" in2="BackgroundImageFix" result="effect1_dropShadow_59_6"/>
<feBlend mode="normal" in="SourceGraphic" in2="effect1_dropShadow_59_6" result="shape"/>
<feColorMatrix in="SourceAlpha" type="matrix" values="0 0 0 0 0 0 0 0 0 0 0 0 0 0 0 0 0 0 127 0" result="hardAlpha"/>
<feOffset dx="-2.49702" dy="1.66468"/>
<feGaussianBlur stdDeviation="1.24851"/>
<feComposite in2="hardAlpha" operator="arithmetic" k2="-1" k3="1"/>
<feColorMatrix type="matrix" values="0 0 0 0 0 0 0 0 0 0 0 0 0 0 0 0 0 0 0.25 0"/>
<feBlend mode="normal" in2="shape" result="effect2_innerShadow_59_6"/>
</filter>
<filter id="filter6_i_59_6" x="131.186" y="197.238" width="36.3228" height="54.1906" filterUnits="userSpaceOnUse" color-interpolation-filters="sRGB">
<feFlood flood-opacity="0" result="BackgroundImageFix"/>
<feBlend mode="normal" in="SourceGraphic" in2="BackgroundImageFix" result="shape"/>
<feColorMatrix in="SourceAlpha" type="matrix" values="0 0 0 0 0 0 0 0 0 0 0 0 0 0 0 0 0 0 127 0" result="hardAlpha"/>
<feMorphology radius="2.49949" operator="erode" in="SourceAlpha" result="effect1_innerShadow_59_6"/>
<feOffset/>
<feGaussianBlur stdDeviation="1.24975"/>
<feComposite in2="hardAlpha" operator="arithmetic" k2="-1" k3="1"/>
<feColorMatrix type="matrix" values="0 0 0 0 0 0 0 0 0 0 0 0 0 0 0 0 0 0 0.25 0"/>
<feBlend mode="normal" in2="shape" result="effect1_innerShadow_59_6"/>
</filter>
<filter id="filter7_i_59_6" x="131.186" y="197.238" width="36.3228" height="54.1906" filterUnits="userSpaceOnUse" color-interpolation-filters="sRGB">
<feFlood flood-opacity="0" result="BackgroundImageFix"/>
<feBlend mode="normal" in="SourceGraphic" in2="BackgroundImageFix" result="shape"/>
<feColorMatrix in="SourceAlpha" type="matrix" values="0 0 0 0 0 0 0 0 0 0 0 0 0 0 0 0 0 0 127 0" result="hardAlpha"/>
<feMorphology radius="0.749096" operator="erode" in="SourceAlpha" result="effect1_innerShadow_59_6"/>
<feOffset/>
<feGaussianBlur stdDeviation="0.374548"/>
<feComposite in2="hardAlpha" operator="arithmetic" k2="-1" k3="1"/>
<feColorMatrix type="matrix" values="0 0 0 0 0 0 0 0 0 0 0 0 0 0 0 0 0 0 0.25 0"/>
<feBlend mode="normal" in2="shape" result="effect1_innerShadow_59_6"/>
</filter>
<filter id="filter8_di_59_6" x="132.508" y="203.884" width="30.6337" height="42.5166" filterUnits="userSpaceOnUse" color-interpolation-filters="sRGB">
<feFlood flood-opacity="0" result="BackgroundImageFix"/>
<feColorMatrix in="SourceAlpha" type="matrix" values="0 0 0 0 0 0 0 0 0 0 0 0 0 0 0 0 0 0 127 0" result="hardAlpha"/>
<feOffset dy="0.852432"/>
<feGaussianBlur stdDeviation="0.53277"/>
<feColorMatrix type="matrix" values="0 0 0 0 1 0 0 0 0 1 0 0 0 0 1 0 0 0 0.59 0"/>
<feBlend mode="normal" in2="BackgroundImageFix" result="effect1_dropShadow_59_6"/>
<feBlend mode="normal" in="SourceGraphic" in2="effect1_dropShadow_59_6" result="shape"/>
<feColorMatrix in="SourceAlpha" type="matrix" values="0 0 0 0 0 0 0 0 0 0 0 0 0 0 0 0 0 0 127 0" result="hardAlpha"/>
<feOffset dx="-3.19662" dy="2.13108"/>
<feGaussianBlur stdDeviation="1.59831"/>
<feComposite in2="hardAlpha" operator="arithmetic" k2="-1" k3="1"/>
<feColorMatrix type="matrix" values="0 0 0 0 0 0 0 0 0 0 0 0 0 0 0 0 0 0 0.25 0"/>
<feBlend mode="normal" in2="shape" result="effect2_innerShadow_59_6"/>
</filter>
<filter id="filter9_ii_59_6" x="109.206" y="77.6714" width="481.295" height="298.716" filterUnits="userSpaceOnUse" color-interpolation-filters="sRGB">
<feFlood flood-opacity="0" result="BackgroundImageFix"/>
<feBlend mode="normal" in="SourceGraphic" in2="BackgroundImageFix" result="shape"/>
<feColorMatrix in="SourceAlpha" type="matrix" values="0 0 0 0 0 0 0 0 0 0 0 0 0 0 0 0 0 0 127 0" result="hardAlpha"/>
<feOffset dx="9.29293" dy="-12.3906"/>
<feGaussianBlur stdDeviation="37.1717"/>
<feComposite in2="hardAlpha" operator="arithmetic" k2="-1" k3="1"/>
<feColorMatrix type="matrix" values="0 0 0 0 0 0 0 0 0 0 0 0 0 0 0 0 0 0 0.07 0"/>
<feBlend mode="normal" in2="shape" result="effect1_innerShadow_59_6"/>
<feColorMatrix in="SourceAlpha" type="matrix" values="0 0 0 0 0 0 0 0 0 0 0 0 0 0 0 0 0 0 127 0" result="hardAlpha"/>
<feOffset dy="-1.54882"/>
<feGaussianBlur stdDeviation="3.09764"/>
<feComposite in2="hardAlpha" operator="arithmetic" k2="-1" k3="1"/>
<feColorMatrix type="matrix" values="0 0 0 0 0 0 0 0 0 0 0 0 0 0 0 0 0 0 0.09 0"/>
<feBlend mode="normal" in2="effect1_innerShadow_59_6" result="effect2_innerShadow_59_6"/>
</filter>
<filter id="filter10_ddi_59_6" x="287.765" y="130.286" width="178.837" height="101.575" filterUnits="userSpaceOnUse" color-interpolation-filters="sRGB">
<feFlood flood-opacity="0" result="BackgroundImageFix"/>
<feColorMatrix in="SourceAlpha" type="matrix" values="0 0 0 0 0 0 0 0 0 0 0 0 0 0 0 0 0 0 127 0" result="hardAlpha"/>
<feOffset dx="-2.01581" dy="1.0079"/>
<feGaussianBlur stdDeviation="1.0079"/>
<feColorMatrix type="matrix" values="0 0 0 0 1 0 0 0 0 1 0 0 0 0 1 0 0 0 0.28 0"/>
<feBlend mode="normal" in2="BackgroundImageFix" result="effect1_dropShadow_59_6"/>
<feColorMatrix in="SourceAlpha" type="matrix" values="0 0 0 0 0 0 0 0 0 0 0 0 0 0 0 0 0 0 127 0" result="hardAlpha"/>
<feOffset dy="-1.0079"/>
<feGaussianBlur stdDeviation="1.0079"/>
<feColorMatrix type="matrix" values="0 0 0 0 1 0 0 0 0 1 0 0 0 0 1 0 0 0 0.56 0"/>
<feBlend mode="normal" in2="effect1_dropShadow_59_6" result="effect2_dropShadow_59_6"/>
<feBlend mode="normal" in="SourceGraphic" in2="effect2_dropShadow_59_6" result="shape"/>
<feColorMatrix in="SourceAlpha" type="matrix" values="0 0 0 0 0 0 0 0 0 0 0 0 0 0 0 0 0 0 127 0" result="hardAlpha"/>
<feOffset dx="-1.0079" dy="3.02371"/>
<feGaussianBlur stdDeviation="1.51186"/>
<feComposite in2="hardAlpha" operator="arithmetic" k2="-1" k3="1"/>
<feColorMatrix type="matrix" values="0 0 0 0 0 0 0 0 0 0 0 0 0 0 0 0 0 0 0.75 0"/>
<feBlend mode="normal" in2="shape" result="effect3_innerShadow_59_6"/>
</filter>
<filter id="filter11_di_59_6" x="149.756" y="131.823" width="169.692" height="97.3958" filterUnits="userSpaceOnUse" color-interpolation-filters="sRGB">
<feFlood flood-opacity="0" result="BackgroundImageFix"/>
<feColorMatrix in="SourceAlpha" type="matrix" values="0 0 0 0 0 0 0 0 0 0 0 0 0 0 0 0 0 0 127 0" result="hardAlpha"/>
<feOffset dy="1.0423"/>
<feGaussianBlur stdDeviation="0.521152"/>
<feColorMatrix type="matrix" values="0 0 0 0 0.925374 0 0 0 0 0.925374 0 0 0 0 0.925374 0 0 0 0.37 0"/>
<feBlend mode="normal" in2="BackgroundImageFix" result="effect1_dropShadow_59_6"/>
<feBlend mode="normal" in="SourceGraphic" in2="effect1_dropShadow_59_6" result="shape"/>
<feColorMatrix in="SourceAlpha" type="matrix" values="0 0 0 0 0 0 0 0 0 0 0 0 0 0 0 0 0 0 127 0" result="hardAlpha"/>
<feOffset dx="-4.03162" dy="5.03952"/>
<feGaussianBlur stdDeviation="2.01581"/>
<feComposite in2="hardAlpha" operator="arithmetic" k2="-1" k3="1"/>
<feColorMatrix type="matrix" values="0 0 0 0 0 0 0 0 0 0 0 0 0 0 0 0 0 0 0.8 0"/>
<feBlend mode="normal" in2="shape" result="effect2_innerShadow_59_6"/>
</filter>
<filter id="filter12_di_59_6" x="150.411" y="92.7235" width="120.101" height="39.7242" filterUnits="userSpaceOnUse" color-interpolation-filters="sRGB">
<feFlood flood-opacity="0" result="BackgroundImageFix"/>
<feColorMatrix in="SourceAlpha" type="matrix" values="0 0 0 0 0 0 0 0 0 0 0 0 0 0 0 0 0 0 127 0" result="hardAlpha"/>
<feOffset dy="1.0423"/>
<feGaussianBlur stdDeviation="0.521152"/>
<feColorMatrix type="matrix" values="0 0 0 0 0.925374 0 0 0 0 0.925374 0 0 0 0 0.925374 0 0 0 0.37 0"/>
<feBlend mode="normal" in2="BackgroundImageFix" result="effect1_dropShadow_59_6"/>
<feBlend mode="normal" in="SourceGraphic" in2="effect1_dropShadow_59_6" result="shape"/>
<feColorMatrix in="SourceAlpha" type="matrix" values="0 0 0 0 0 0 0 0 0 0 0 0 0 0 0 0 0 0 127 0" result="hardAlpha"/>
<feOffset dx="-4.03162" dy="5.03952"/>
<feGaussianBlur stdDeviation="2.01581"/>
<feComposite in2="hardAlpha" operator="arithmetic" k2="-1" k3="1"/>
<feColorMatrix type="matrix" values="0 0 0 0 0 0 0 0 0 0 0 0 0 0 0 0 0 0 0.8 0"/>
<feBlend mode="normal" in2="shape" result="effect2_innerShadow_59_6"/>
</filter>
<filter id="filter13_f_59_6" x="279.192" y="192.879" width="249.756" height="128.743" filterUnits="userSpaceOnUse" color-interpolation-filters="sRGB">
<feFlood flood-opacity="0" result="BackgroundImageFix"/>
<feBlend mode="normal" in="SourceGraphic" in2="BackgroundImageFix" result="shape"/>
<feGaussianBlur stdDeviation="14.1107" result="effect1_foregroundBlur_59_6"/>
</filter>
<filter id="filter14_f_59_6" x="458.447" y="146.701" width="118.397" height="129.351" filterUnits="userSpaceOnUse" color-interpolation-filters="sRGB">
<feFlood flood-opacity="0" result="BackgroundImageFix"/>
<feBlend mode="normal" in="SourceGraphic" in2="BackgroundImageFix" result="shape"/>
<feGaussianBlur stdDeviation="9.07114" result="effect1_foregroundBlur_59_6"/>
</filter>
<filter id="filter15_di_59_6" x="242.744" y="218.628" width="15.5147" height="12.6561" filterUnits="userSpaceOnUse" color-interpolation-filters="sRGB">
<feFlood flood-opacity="0" result="BackgroundImageFix"/>
<feColorMatrix in="SourceAlpha" type="matrix" values="0 0 0 0 0 0 0 0 0 0 0 0 0 0 0 0 0 0 127 0" result="hardAlpha"/>
<feOffset dy="-0.499898"/>
<feGaussianBlur stdDeviation="0.249949"/>
<feColorMatrix type="matrix" values="0 0 0 0 0.78755 0 0 0 0 0.78755 0 0 0 0 0.78755 0 0 0 0.19 0"/>
<feBlend mode="normal" in2="BackgroundImageFix" result="effect1_dropShadow_59_6"/>
<feBlend mode="normal" in="SourceGraphic" in2="effect1_dropShadow_59_6" result="shape"/>
<feColorMatrix in="SourceAlpha" type="matrix" values="0 0 0 0 0 0 0 0 0 0 0 0 0 0 0 0 0 0 127 0" result="hardAlpha"/>
<feOffset dy="2.49949"/>
<feGaussianBlur stdDeviation="1.24975"/>
<feComposite in2="hardAlpha" operator="arithmetic" k2="-1" k3="1"/>
<feColorMatrix type="matrix" values="0 0 0 0 0 0 0 0 0 0 0 0 0 0 0 0 0 0 0.74 0"/>
<feBlend mode="normal" in2="shape" result="effect2_innerShadow_59_6"/>
</filter>
<filter id="filter16_di_59_6" x="175.592" y="188.583" width="15.5147" height="12.6561" filterUnits="userSpaceOnUse" color-interpolation-filters="sRGB">
<feFlood flood-opacity="0" result="BackgroundImageFix"/>
<feColorMatrix in="SourceAlpha" type="matrix" values="0 0 0 0 0 0 0 0 0 0 0 0 0 0 0 0 0 0 127 0" result="hardAlpha"/>
<feOffset dy="-0.499898"/>
<feGaussianBlur stdDeviation="0.249949"/>
<feColorMatrix type="matrix" values="0 0 0 0 0.78755 0 0 0 0 0.78755 0 0 0 0 0.78755 0 0 0 0.19 0"/>
<feBlend mode="normal" in2="BackgroundImageFix" result="effect1_dropShadow_59_6"/>
<feBlend mode="normal" in="SourceGraphic" in2="effect1_dropShadow_59_6" result="shape"/>
<feColorMatrix in="SourceAlpha" type="matrix" values="0 0 0 0 0 0 0 0 0 0 0 0 0 0 0 0 0 0 127 0" result="hardAlpha"/>
<feOffset dy="2.49949"/>
<feGaussianBlur stdDeviation="1.24975"/>
<feComposite in2="hardAlpha" operator="arithmetic" k2="-1" k3="1"/>
<feColorMatrix type="matrix" values="0 0 0 0 0 0 0 0 0 0 0 0 0 0 0 0 0 0 0.74 0"/>
<feBlend mode="normal" in2="shape" result="effect2_innerShadow_59_6"/>
</filter>
<filter id="filter17_f_59_6" x="168.476" y="211.219" width="142.533" height="101.563" filterUnits="userSpaceOnUse" color-interpolation-filters="sRGB">
<feFlood flood-opacity="0" result="BackgroundImageFix"/>
<feBlend mode="normal" in="SourceGraphic" in2="BackgroundImageFix" result="shape"/>
<feGaussianBlur stdDeviation="3.02371" result="effect1_foregroundBlur_59_6"/>
</filter>
<filter id="filter18_f_59_6" x="415.947" y="218.356" width="180.841" height="128.21" filterUnits="userSpaceOnUse" color-interpolation-filters="sRGB">
<feFlood flood-opacity="0" result="BackgroundImageFix"/>
<feBlend mode="normal" in="SourceGraphic" in2="BackgroundImageFix" result="shape"/>
<feGaussianBlur stdDeviation="5.03952" result="effect1_foregroundBlur_59_6"/>
</filter>
<filter id="filter19_ddii_59_6" x="405.751" y="247.694" width="175.163" height="90.5149" filterUnits="userSpaceOnUse" color-interpolation-filters="sRGB">
<feFlood flood-opacity="0" result="BackgroundImageFix"/>
<feColorMatrix in="SourceAlpha" type="matrix" values="0 0 0 0 0 0 0 0 0 0 0 0 0 0 0 0 0 0 127 0" result="hardAlpha"/>
<feOffset dy="0.94086"/>
<feGaussianBlur stdDeviation="0.62724"/>
<feColorMatrix type="matrix" values="0 0 0 0 0 0 0 0 0 0 0 0 0 0 0 0 0 0 0.57 0"/>
<feBlend mode="normal" in2="BackgroundImageFix" result="effect1_dropShadow_59_6"/>
<feColorMatrix in="SourceAlpha" type="matrix" values="0 0 0 0 0 0 0 0 0 0 0 0 0 0 0 0 0 0 127 0" result="hardAlpha"/>
<feOffset dy="-0.62724"/>
<feGaussianBlur stdDeviation="0.62724"/>
<feColorMatrix type="matrix" values="0 0 0 0 0 0 0 0 0 0 0 0 0 0 0 0 0 0 1 0"/>
<feBlend mode="normal" in2="effect1_dropShadow_59_6" result="effect2_dropShadow_59_6"/>
<feBlend mode="normal" in="SourceGraphic" in2="effect2_dropShadow_59_6" result="shape"/>
<feColorMatrix in="SourceAlpha" type="matrix" values="0 0 0 0 0 0 0 0 0 0 0 0 0 0 0 0 0 0 127 0" result="hardAlpha"/>
<feOffset dy="8.64724"/>
<feGaussianBlur stdDeviation="8.81247"/>
<feComposite in2="hardAlpha" operator="arithmetic" k2="-1" k3="1"/>
<feColorMatrix type="matrix" values="0 0 0 0 0 0 0 0 0 0 0 0 0 0 0 0 0 0 1 0"/>
<feBlend mode="normal" in2="shape" result="effect3_innerShadow_59_6"/>
<feColorMatrix in="SourceAlpha" type="matrix" values="0 0 0 0 0 0 0 0 0 0 0 0 0 0 0 0 0 0 127 0" result="hardAlpha"/>
<feOffset dy="-0.942296"/>
<feGaussianBlur stdDeviation="0.942296"/>
<feComposite in2="hardAlpha" operator="arithmetic" k2="-1" k3="1"/>
<feColorMatrix type="matrix" values="0 0 0 0 0 0 0 0 0 0 0 0 0 0 0 0 0 0 1 0"/>
<feBlend mode="normal" in2="effect3_innerShadow_59_6" result="effect4_innerShadow_59_6"/>
</filter>
<filter id="filter20_d_59_6" x="429.783" y="297.393" width="53.9438" height="21.3361" filterUnits="userSpaceOnUse" color-interpolation-filters="sRGB">
<feFlood flood-opacity="0" result="BackgroundImageFix"/>
<feColorMatrix in="SourceAlpha" type="matrix" values="0 0 0 0 0 0 0 0 0 0 0 0 0 0 0 0 0 0 127 0" result="hardAlpha"/>
<feOffset dx="0.999797" dy="1.24194"/>
<feGaussianBlur stdDeviation="0.620968"/>
<feColorMatrix type="matrix" values="0 0 0 0 1 0 0 0 0 1 0 0 0 0 1 0 0 0 0.24 0"/>
<feBlend mode="normal" in2="BackgroundImageFix" result="effect1_dropShadow_59_6"/>
<feBlend mode="normal" in="SourceGraphic" in2="effect1_dropShadow_59_6" result="shape"/>
</filter>
<filter id="filter21_d_59_6" x="560.698" y="252.252" width="17.5112" height="20.1902" filterUnits="userSpaceOnUse" color-interpolation-filters="sRGB">
<feFlood flood-opacity="0" result="BackgroundImageFix"/>
<feColorMatrix in="SourceAlpha" type="matrix" values="0 0 0 0 0 0 0 0 0 0 0 0 0 0 0 0 0 0 127 0" result="hardAlpha"/>
<feOffset dx="0.999797" dy="1.24194"/>
<feGaussianBlur stdDeviation="0.620968"/>
<feColorMatrix type="matrix" values="0 0 0 0 1 0 0 0 0 1 0 0 0 0 1 0 0 0 0.24 0"/>
<feBlend mode="normal" in2="BackgroundImageFix" result="effect1_dropShadow_59_6"/>
<feBlend mode="normal" in="SourceGraphic" in2="effect1_dropShadow_59_6" result="shape"/>
</filter>
<linearGradient id="paint0_linear_59_6" x1="50.3643" y1="54.1984" x2="52.7709" y2="17.6538" gradientUnits="userSpaceOnUse">
<stop stop-color="#3F3F3F"/>
<stop offset="1" stop-color="#5C5C5C"/>
</linearGradient>
<linearGradient id="paint1_linear_59_6" x1="47.6541" y1="51.7372" x2="49.9717" y2="16.8548" gradientUnits="userSpaceOnUse">
<stop stop-color="#AAAAAA"/>
<stop offset="1" stop-color="#C2C2C2"/>
</linearGradient>
<linearGradient id="paint2_linear_59_6" x1="41.4405" y1="44.9267" x2="43.4501" y2="14.6357" gradientUnits="userSpaceOnUse">
<stop stop-color="#3F3F3F"/>
<stop offset="1" stop-color="#5C5C5C"/>
</linearGradient>
<linearGradient id="paint3_linear_59_6" x1="38.888" y1="43.3683" x2="40.883" y2="14.1355" gradientUnits="userSpaceOnUse">
<stop stop-color="#AAAAAA"/>
<stop offset="1" stop-color="#C2C2C2"/>
</linearGradient>
<linearGradient id="paint4_linear_59_6" x1="185.251" y1="249.208" x2="565.124" y2="207.727" gradientUnits="userSpaceOnUse">
<stop stop-color="#CECBCB"/>
<stop offset="1" stop-color="white"/>
</linearGradient>
<linearGradient id="paint5_linear_59_6" x1="400.457" y1="48.1966" x2="279.823" y2="162.643" gradientUnits="userSpaceOnUse">
<stop stop-color="#E8EAE9"/>
<stop offset="0.498386" stop-color="#707072"/>
<stop offset="1" stop-color="#2F3032"/>
</linearGradient>
<linearGradient id="paint6_linear_59_6" x1="187.291" y1="415.098" x2="301.358" y2="207.815" gradientUnits="userSpaceOnUse">
<stop stop-color="#E8EAE9"/>
<stop offset="0.498386" stop-color="#707072"/>
<stop offset="1" stop-color="#2F3032"/>
</linearGradient>
<linearGradient id="paint7_linear_59_6" x1="142.519" y1="202.217" x2="206.159" y2="109.113" gradientUnits="userSpaceOnUse">
<stop stop-color="#E8EAE9"/>
<stop offset="0.498386" stop-color="#707072"/>
<stop offset="1" stop-color="#2F3032"/>
</linearGradient>
<linearGradient id="paint8_linear_59_6" x1="396.479" y1="296.055" x2="411.486" y2="253.342" gradientUnits="userSpaceOnUse">
<stop stop-color="#ECEAEA"/>
<stop offset="1" stop-color="white" stop-opacity="0"/>
</linearGradient>
<linearGradient id="paint9_linear_59_6" x1="573.065" y1="224.435" x2="515.202" y2="244.018" gradientUnits="userSpaceOnUse">
<stop stop-color="#ECEAEA"/>
<stop offset="1" stop-color="white" stop-opacity="0"/>
</linearGradient>
<linearGradient id="paint10_linear_59_6" x1="258.451" y1="300.032" x2="275.305" y2="264.567" gradientUnits="userSpaceOnUse">
<stop stop-color="#040404"/>
<stop offset="1" stop-color="#3C3C3C" stop-opacity="0"/>
</linearGradient>
<linearGradient id="paint11_linear_59_6" x1="507.222" y1="303.913" x2="498.204" y2="284.197" gradientUnits="userSpaceOnUse">
<stop stop-color="#4B4B4B"/>
<stop offset="0.899322" stop-opacity="0"/>
</linearGradient>
</defs>
</svg>
