<svg width="484" height="332" viewBox="0 0 484 332" fill="none" xmlns="http://www.w3.org/2000/svg">
<path d="M269.495 227.41C269.089 226.485 241.458 222.431 227.693 220.519C222.684 224.616 212.475 233.231 211.715 234.916C210.765 237.021 211.988 253.517 222.956 265.465C233.924 277.414 257.693 258.961 265.254 256.071C272.816 253.18 270.002 228.566 269.495 227.41Z" fill="#2C2C2C"/>
<path d="M68.985 136.549C68.5789 135.624 40.9482 131.57 27.1836 129.658C22.1743 133.755 11.9655 142.371 11.2052 144.055C10.2549 146.161 11.478 162.656 22.4463 174.605C33.4145 186.553 57.1829 168.1 64.7447 165.21C72.3065 162.319 69.4925 137.705 68.985 136.549Z" fill="#131313"/>
<path fill-rule="evenodd" clip-rule="evenodd" d="M231.714 236.277L257.53 224.51L257.536 224.522C257.695 224.446 257.856 224.372 258.019 224.3C273.4 217.511 295.699 232.139 307.825 256.973C319.951 281.807 317.313 307.442 301.932 314.232C301.737 314.317 301.542 314.4 301.345 314.479L276.418 325.856L262.124 297.214C258.378 292.654 254.971 287.388 252.125 281.559C249.499 276.181 247.566 270.766 246.304 265.513L231.714 236.277Z" fill="black"/>
<ellipse cx="30.2505" cy="50.335" rx="30.2505" ry="50.335" transform="matrix(-0.920649 0.406367 0.435873 0.892625 260.313 223.736)" fill="black"/>
<g filter="url(#filter0_i_86_5)">
<ellipse cx="22.6889" cy="37.753" rx="22.6889" ry="37.753" transform="matrix(-0.920649 0.406367 0.435873 0.892625 257.954 238.078)" fill="url(#paint0_linear_86_5)"/>
</g>
<g filter="url(#filter1_di_86_5)">
<path fill-rule="evenodd" clip-rule="evenodd" d="M255.053 255.118C258.058 256.913 261.014 259.422 263.72 262.512L257.165 273.662C256.567 273.016 255.941 272.442 255.3 271.95L255.053 255.118ZM255.599 292.32C256.329 292.473 257.042 292.498 257.719 292.383L267.914 308.646C267.674 308.773 267.428 308.892 267.176 309.003C263.78 310.502 259.844 310.327 255.84 308.789L255.599 292.32ZM253.483 307.73L253.243 291.419C252.34 290.921 251.444 290.255 250.59 289.445L244.133 300.428C247.071 303.592 250.269 306.079 253.483 307.73ZM252.937 270.535L252.693 253.86C248.169 251.74 243.654 251.303 239.826 252.993C238.758 253.464 237.789 254.081 236.92 254.826L247.078 271.029C247.416 270.74 247.792 270.5 248.207 270.317C249.618 269.694 251.27 269.816 252.937 270.535ZM236.142 288.66C237.951 292.365 240.124 295.705 242.515 298.585L248.95 287.638C248.238 286.732 247.582 285.719 247.008 284.617L235.67 287.667C235.823 287.998 235.98 288.329 236.142 288.66ZM258.724 275.607L265.301 264.42C267.371 267.062 269.258 270.056 270.86 273.336C271.22 274.073 271.559 274.812 271.878 275.55L260.446 278.625C260.383 278.487 260.317 278.349 260.25 278.211C259.795 277.281 259.282 276.409 258.724 275.607ZM234.743 285.538C232.802 280.784 231.72 276.06 231.462 271.721L245.112 278.976C245.289 280.114 245.603 281.3 246.056 282.495L234.743 285.538ZM261.287 280.777C261.805 282.381 262.068 283.95 262.088 285.391L275.599 292.572C275.639 287.994 274.703 282.881 272.745 277.695L261.287 280.777ZM275.472 295.112L261.853 287.873C261.524 289.371 260.854 290.605 259.859 291.416L269.854 307.36C273.079 304.729 274.98 300.375 275.472 295.112ZM231.408 269.085L244.949 276.282C244.999 275.094 245.225 274.009 245.62 273.084L235.259 256.556C232.811 259.628 231.506 264.017 231.408 269.085Z" fill="#4C4C4C"/>
</g>
<path fill-rule="evenodd" clip-rule="evenodd" d="M231.72 235.758L257.536 223.991L257.539 223.997C257.7 223.92 257.863 223.846 258.027 223.773C273.408 216.984 295.707 231.612 307.833 256.446C319.96 281.28 317.321 306.915 301.94 313.705C301.792 313.77 301.644 313.833 301.495 313.894L276.424 325.337L262.116 296.667C258.376 292.112 254.976 286.852 252.134 281.032C249.512 275.663 247.581 270.257 246.319 265.012L231.72 235.758Z" fill="black"/>
<path d="M226.509 293.74C238.485 318.265 260.475 332.727 275.624 326.04C290.773 319.354 293.345 294.051 281.369 269.525C269.393 244.999 246.728 229.218 231.579 235.905C216.43 242.591 214.533 269.214 226.509 293.74Z" fill="black"/>
<g filter="url(#filter2_i_86_5)">
<ellipse cx="21.4682" cy="36.0383" rx="21.4682" ry="36.0383" transform="matrix(-0.907693 0.41215 0.426714 0.907133 257.89 239.453)" fill="url(#paint1_linear_86_5)"/>
</g>
<g filter="url(#filter3_di_86_5)">
<path fill-rule="evenodd" clip-rule="evenodd" d="M241.686 291.854C246.747 300.125 253.816 305.496 260.028 306.007L253.342 292.06C252.01 291.265 250.697 290.112 249.506 288.673L241.686 291.854ZM238.534 285.675C234.409 275.795 234.429 265.959 238.172 260.418L244.858 274.364C244.524 276.762 244.896 279.674 246.021 282.629L238.534 285.675ZM260.391 276.783C257.672 271.657 253.38 268.409 249.866 268.647L243.912 256.228C251.627 254.188 261.921 261.602 267.876 273.738L260.391 276.783ZM262.618 283.338L270.437 280.157C273.647 290.497 272.299 300.162 266.888 304.155L260.934 291.734C262.572 289.953 263.164 286.849 262.618 283.338Z" fill="#474747"/>
</g>
<path fill-rule="evenodd" clip-rule="evenodd" d="M35.5979 148.07L59.2276 141.944L59.2306 141.954C59.3832 141.912 59.5368 141.872 59.6914 141.834C73.7337 138.37 90.1207 153.937 96.2927 176.603C102.465 199.27 96.0845 220.453 82.0421 223.917C81.8655 223.96 81.6885 224.001 81.5112 224.038L58.671 229.972L51.2705 203.703C48.8775 199.339 46.8811 194.436 45.4409 189.147C44.1128 184.27 43.3659 179.461 43.1515 174.883L35.5979 148.07Z" fill="black"/>
<ellipse cx="25.7799" cy="43.2153" rx="25.7799" ry="43.2153" transform="matrix(-0.98627 0.243279 0.258401 0.948953 61.6804 141.697)" fill="black"/>
<g filter="url(#filter4_i_86_5)">
<ellipse cx="19.3358" cy="32.413" rx="19.3358" ry="32.413" transform="matrix(-0.98627 0.243279 0.258401 0.948953 57.3682 153.418)" fill="url(#paint2_linear_86_5)"/>
</g>
<g filter="url(#filter5_di_86_5)">
<path fill-rule="evenodd" clip-rule="evenodd" d="M52.1591 167.331C54.395 169.28 56.4742 171.821 58.2493 174.816L50.9185 183.247C50.5219 182.618 50.0902 182.045 49.6335 181.538L52.1591 167.331ZM46.58 198.716C47.1683 198.949 47.7632 199.073 48.3501 199.073L54.2893 214.249C54.0675 214.32 53.8424 214.384 53.6141 214.44C50.5136 215.205 47.23 214.482 44.1113 212.603L46.58 198.716ZM42.2898 211.359L44.7341 197.609C44.0572 197.061 43.413 196.373 42.8279 195.57L35.6203 203.859C37.5755 206.945 39.858 209.502 42.2898 211.359ZM47.8659 179.992L50.3673 165.921C46.9084 163.481 43.1848 162.457 39.6935 163.318C38.7194 163.558 37.8045 163.935 36.9529 164.435L42.8659 179.543C43.1936 179.352 43.5454 179.208 43.9196 179.116C45.2088 178.798 46.5796 179.142 47.8659 179.992ZM30.8058 192.788C31.7262 196.168 33.0118 199.295 34.5549 202.066L41.7374 193.806C41.2825 192.935 40.8925 191.982 40.5878 190.964L30.5669 191.872C30.6428 192.177 30.7225 192.482 30.8058 192.788ZM51.9162 185.117L59.2724 176.657C60.5854 179.182 61.6867 181.976 62.5018 184.97C62.6848 185.642 62.8502 186.312 62.9981 186.979L52.8696 187.896C52.8385 187.771 52.8059 187.645 52.7716 187.519C52.5415 186.674 52.2527 185.87 51.9162 185.117ZM30.1352 189.954C29.2737 185.671 29.1307 181.539 29.6179 177.851L39.9107 185.939C39.8743 186.926 39.9456 187.973 40.1339 189.049L30.1352 189.954ZM53.2268 189.82C53.4029 191.248 53.3707 192.609 53.1535 193.826L63.3662 201.852C64.1441 198.002 64.1866 193.557 63.3781 188.901L53.2268 189.82ZM62.8485 203.964L52.5556 195.876C52.0376 197.086 51.2762 198.027 50.3108 198.566L56.1352 213.448C59.2754 211.706 61.5808 208.32 62.8485 203.964ZM29.9984 175.631L40.2106 183.656C40.447 182.661 40.8147 181.779 41.2994 181.058L35.2696 165.65C32.7126 167.879 30.9025 171.381 29.9984 175.631Z" fill="#4C4C4C"/>
</g>
<path fill-rule="evenodd" clip-rule="evenodd" d="M51.7256 206.125C48.0421 200.699 44.998 194.139 43.0117 186.845C41.1387 179.966 40.4216 173.224 40.724 167.072L35.5366 148.659L48.0585 145.412C50.5684 142.471 53.6637 140.419 57.2622 139.532C71.3046 136.068 87.6915 151.635 93.8635 174.301C99.7593 195.954 94.2012 216.252 81.4515 221.045L81.8739 222.533L58.6096 230.561L51.7256 206.125Z" fill="black"/>
<ellipse cx="25.6973" cy="43.077" rx="25.6973" ry="43.077" transform="matrix(-0.98627 0.243279 0.258401 0.948953 61.3448 142.617)" fill="black"/>
<g filter="url(#filter6_i_86_5)">
<g filter="url(#filter7_i_86_5)">
<ellipse cx="18.1465" cy="31.2848" rx="18.1465" ry="31.2848" transform="matrix(-0.991028 0.223586 0.2527 0.950707 56.7094 155.902)" fill="url(#paint3_linear_86_5)"/>
</g>
<g filter="url(#filter8_di_86_5)">
<path fill-rule="evenodd" clip-rule="evenodd" d="M33.3742 194.624C36.0111 202.902 41.1285 209.201 46.4429 211.225L43.4116 198.29C42.209 197.063 41.14 195.408 40.3495 193.471L33.3742 194.624ZM32.0014 188.758C30.7367 180.386 32.5955 172.963 36.6617 169.487L39.6933 182.423C39.1469 183.875 38.9014 185.658 39.0097 187.6L32.0014 188.758ZM51.7398 185.497C50.1772 181.889 47.644 179.327 45.1301 178.808L42.4578 167.405C48.7823 167.578 55.5034 174.527 58.7353 184.342L51.7398 185.497ZM53.2014 191.348L60.1656 190.198C61.8186 200.445 58.8017 209.345 52.7793 211.449L50.1078 200.049C52.3324 198.757 53.5146 195.362 53.2014 191.348Z" fill="#474747"/>
</g>
</g>
<g filter="url(#filter9_ii_86_5)">
<path d="M479.028 259.833C482.486 253.241 481.53 247.413 481.627 242.136L481.43 228.678C481.273 217.991 481.246 208.833 481.087 205.324C480.928 201.816 484.859 191.616 464.961 173.073C447.093 156.423 408.084 137.352 398.4 135.031C388.717 132.71 347.056 77.6306 331.707 66.9522C285.863 35.0594 170.38 5.35781 141.931 5.73284C125.443 5.28795 57.0138 38.6949 49.396 43.293C10.0068 67.0681 36.7202 57.3525 7.88539 93.0935C5.95971 95.0319 4.78157 105.056 5.28977 110.095C4.58883 111.934 3.03277 115.75 2.88769 116.424C1.98514 120.615 5.18384 141.331 5.24307 145.369C5.31224 150.085 4.45235 158.655 5.5076 163.405C6.56284 168.155 19.3795 179.374 19.4822 177.932C19.4046 172.64 19.7611 171.687 21.1071 163.199C24.7662 149.947 31.3766 144.013 36.6907 142.879C47.807 140.508 58.0639 144.726 66.3093 157.97C82.1932 183.484 75.9133 199.683 78.1958 210.507L220.717 278.274C219.288 270.756 219.615 273.996 219.267 269.281C218.832 263.387 218.505 235.626 236.543 229.457C252.436 224.021 273.025 242.826 282.793 258.165C290.989 271.033 297.582 297.547 298.891 311.607C306.444 315.134 334.089 329.535 376.089 316.419C458.809 290.584 475.578 266.411 479.028 259.833Z" fill="url(#paint4_linear_86_5)"/>
</g>
<mask id="mask0_86_5" style="mask-type:alpha" maskUnits="userSpaceOnUse" x="2" y="5" width="480" height="317">
<path d="M479.028 259.833C482.486 253.241 481.53 247.413 481.627 242.136L481.43 228.678C481.273 217.991 481.246 208.833 481.087 205.324C480.928 201.816 484.859 191.616 464.961 173.073C447.093 156.423 408.084 137.352 398.4 135.031C388.717 132.71 347.056 77.6306 331.707 66.9522C285.863 35.0594 170.38 5.35781 141.931 5.73284C125.443 5.28795 57.0138 38.6949 49.396 43.293C10.0068 67.0681 36.7202 57.3525 7.88539 93.0935C6.12361 94.8669 4.98757 103.408 5.19606 108.708C5.23205 109.623 5.1207 110.539 4.78658 111.39C4.0245 113.331 3.00385 115.885 2.88769 116.424C1.98514 120.615 5.18384 141.331 5.24307 145.369C5.31224 150.085 4.45235 158.655 5.5076 163.405C6.56284 168.155 19.3795 179.374 19.4822 177.932C19.5849 176.49 20.2835 168.382 19.8631 162.807C19.7208 153.103 28.1474 144.702 36.6907 142.879C47.807 140.508 58.0494 143.743 66.2949 156.987C82.1239 182.412 74.9198 196.283 75.2768 206.741C75.3399 208.59 76.5985 210.121 78.2739 210.914L212.229 274.26C215.671 275.888 219.321 272.863 219.041 269.073C218.606 263.179 218.505 235.626 236.543 229.457C252.436 224.021 273.025 242.826 282.793 258.165C290.373 270.068 296.583 293.644 298.508 308.242C298.783 310.326 300.043 312.167 301.956 313.046C312.454 317.873 338.532 328.148 376.089 316.419C458.809 290.584 475.578 266.411 479.028 259.833Z" fill="url(#paint5_linear_86_5)"/>
</mask>
<g mask="url(#mask0_86_5)">
<g filter="url(#filter10_ddi_86_5)">
<path d="M257.819 180.082C244.591 170.672 245.092 158.699 225.705 125.828C223.592 122.245 225.063 117.603 228.889 116.005L329.7 73.9125C332.163 72.8839 335.301 72.7274 337.304 74.5064C341.258 78.0168 349.609 86.5178 367.251 106.779C379.829 121.224 382.233 124.837 391.559 133.552C392.671 134.59 390.485 137.409 385.785 141.186C370.8 153.227 280.624 196.305 257.819 180.082Z" fill="url(#paint6_linear_86_5)"/>
</g>
<g filter="url(#filter11_di_86_5)">
<path d="M129.491 78.5174C99.8596 65.1871 91.7548 63.6343 71.2634 71.3462C60.9044 75.2449 48.0803 79.5589 46.3401 86.326C44.6 93.0931 75.0906 108.778 84.0088 113.303C88.3675 115.515 243.868 190.907 240.534 181.938C236.447 170.945 214.248 126.973 206.081 115.88C200.825 108.74 159.123 91.8477 129.491 78.5174Z" fill="url(#paint7_linear_86_5)"/>
</g>
<g filter="url(#filter12_f_86_5)">
<path d="M297.13 236.485C259.159 220.361 237.654 199.776 214.646 181.004C282.609 199.132 424.886 238.887 422.706 241.625C419.981 245.047 409.866 249.198 376.088 251.804C342.834 254.37 301.478 238.331 297.13 236.485Z" fill="url(#paint8_linear_86_5)" fill-opacity="0.21"/>
</g>
<g filter="url(#filter13_f_86_5)">
<path d="M441.649 155.232C439.48 153.59 412.156 127.488 391.795 114.582C408.917 145.195 447.908 211.712 451.438 211.33C455.85 210.853 476.014 206.998 481.778 193.883C487.453 180.971 444.359 157.285 441.649 155.232Z" fill="url(#paint9_linear_86_5)" fill-opacity="0.13"/>
</g>
<g filter="url(#filter14_di_86_5)">
<path d="M165.529 171.969C165.517 171.158 165.034 170.434 164.28 170.099L153.079 165.117C151.594 164.457 149.873 165.56 149.897 167.159V167.159C149.909 167.975 150.396 168.703 151.154 169.039L162.363 174.004C163.842 174.659 165.552 173.559 165.529 171.969V171.969Z" fill="#323232"/>
</g>
<g filter="url(#filter15_di_86_5)">
<path d="M92.8911 142.724C92.8792 141.913 92.3958 141.189 91.6422 140.854L80.4416 135.873C78.956 135.212 77.2355 136.316 77.2589 137.915V137.915C77.2709 138.73 77.7579 139.458 78.5163 139.794L89.7253 144.759C91.2042 145.414 92.9144 144.315 92.8911 142.724V142.724Z" fill="#323232"/>
</g>
<path d="M346.097 162.639L264.741 101.545C254.93 104.202 232.733 114.244 228.484 115.821C222.98 117.864 223.242 120.879 223.242 120.879C223.265 122.462 223.05 121.357 224.851 124.47C227.842 129.636 230.24 134.251 236.719 147.569C247.848 170.446 250.232 176.212 259.536 181.338C266.545 185.199 281.148 185.776 298.764 180.007C314.511 174.851 332.571 168.631 346.097 162.639Z" fill="#C4C4C4" fill-opacity="0.2"/>
<g opacity="0.17" filter="url(#filter16_f_86_5)">
<path d="M462.492 189.703C439.321 207.582 387.568 233.386 364.353 237.523" stroke="url(#paint10_linear_86_5)" stroke-width="76.5056" stroke-linecap="round" stroke-linejoin="round"/>
</g>
<g filter="url(#filter17_dii_86_5)">
<path d="M470.891 199.513C475.351 193.636 474.034 188.997 473.255 181.709C473.23 181.482 473.17 181.242 473.094 181.026C471.095 175.369 479.846 187.221 480.866 195.495C481.204 198.241 481.038 199.635 480.803 202.177C480.696 203.339 476.706 211.072 477.103 212.597C477.499 214.122 477.238 225.655 477.318 227.248C477.398 228.842 471.717 239.208 453.437 250.89C438.251 260.595 416.338 267.122 414.087 267.459C411.836 267.797 409.52 260.653 407.876 260.278C403.576 259.298 390.982 263.873 386.272 265.061C380.777 266.448 367.955 269.647 353.868 268.12C336.444 266.232 333.755 264.393 317.644 256.351C307.576 251.324 300.172 241.681 296.964 235.659C296.04 233.924 297.556 232.322 299.438 232.886C310.623 236.235 333.553 243.663 359.343 245.826C397.783 249.05 427.847 231.36 432.154 228.817C450.259 218.129 459.793 214.139 470.891 199.513Z" fill="#141414"/>
</g>
<mask id="mask1_86_5" style="mask-type:alpha" maskUnits="userSpaceOnUse" x="297" y="186" width="186" height="83">
<path d="M470.908 199.444C472.802 196.944 473.719 194.24 474.014 191.543C474.482 187.277 478.728 185.015 480.533 189.012C481.803 191.824 482.477 194.156 482.754 195.724C483.094 198.47 483.049 200.217 482.815 202.758C482.709 203.921 476.566 210.591 476.964 212.116C477.361 213.641 477.125 223.081 477.174 226.437C477.223 229.792 471.761 239.138 453.488 250.831C438.309 260.545 416.4 267.086 414.15 267.424C411.899 267.763 409.578 260.621 407.934 260.247C403.633 259.269 391.042 263.851 386.333 265.043C380.839 266.433 368.019 269.64 353.931 268.122C336.506 266.244 333.815 264.407 317.7 256.374C308.633 251.855 301.723 243.593 298.091 237.598C296.527 235.016 298.721 232.689 301.624 233.567C313.437 237.137 335.153 243.806 359.391 245.824C397.833 249.025 427.885 231.317 432.191 228.771C450.289 218.072 459.819 214.076 470.908 199.444Z" fill="#272727"/>
</mask>
<g mask="url(#mask1_86_5)">
<g filter="url(#filter18_d_86_5)">
<path d="M325.348 238.018L375.403 238.072C375.511 238.394 375.629 238.787 375.733 239.237C376.039 240.561 376.214 242.3 375.772 244.092C375.338 245.85 374.292 247.746 372.005 249.416C369.69 251.107 366.039 252.612 360.34 253.414C356.977 253.887 352.297 253.934 347.474 253.132C342.643 252.329 337.791 250.695 333.987 247.901C331.956 246.41 329.395 243.394 327.261 240.604C326.546 239.67 325.896 238.782 325.348 238.018Z" stroke="white" stroke-opacity="0.9" stroke-width="3.21951"/>
</g>
<g filter="url(#filter19_d_86_5)">
<path d="M473.326 185.331C473.689 185.999 474.076 186.818 474.406 187.755C475.351 190.443 475.801 194.016 473.996 197.836C473.508 198.869 472.839 199.485 472.235 199.726C471.711 199.935 471.016 199.956 470.117 199.331C469.278 198.746 468.174 198.548 467.259 198.474C466.329 198.398 465.33 198.432 464.43 198.505L473.326 185.331Z" stroke="white" stroke-opacity="0.9" stroke-width="3.21951"/>
</g>
</g>
</g>
<defs>
<filter id="filter0_i_86_5" x="226.928" y="246.051" width="53.1855" height="69.8932" filterUnits="userSpaceOnUse" color-interpolation-filters="sRGB">
<feFlood flood-opacity="0" result="BackgroundImageFix"/>
<feBlend mode="normal" in="SourceGraphic" in2="BackgroundImageFix" result="shape"/>
<feColorMatrix in="SourceAlpha" type="matrix" values="0 0 0 0 0 0 0 0 0 0 0 0 0 0 0 0 0 0 127 0" result="hardAlpha"/>
<feMorphology radius="1.15918" operator="erode" in="SourceAlpha" result="effect1_innerShadow_86_5"/>
<feOffset/>
<feGaussianBlur stdDeviation="0.579588"/>
<feComposite in2="hardAlpha" operator="arithmetic" k2="-1" k3="1"/>
<feColorMatrix type="matrix" values="0 0 0 0 0 0 0 0 0 0 0 0 0 0 0 0 0 0 0.25 0"/>
<feBlend mode="normal" in2="shape" result="effect1_innerShadow_86_5"/>
</filter>
<filter id="filter1_di_86_5" x="227.93" y="251.725" width="48.3658" height="60.6335" filterUnits="userSpaceOnUse" color-interpolation-filters="sRGB">
<feFlood flood-opacity="0" result="BackgroundImageFix"/>
<feColorMatrix in="SourceAlpha" type="matrix" values="0 0 0 0 0 0 0 0 0 0 0 0 0 0 0 0 0 0 127 0" result="hardAlpha"/>
<feOffset dy="0.46367"/>
<feGaussianBlur stdDeviation="0.347753"/>
<feColorMatrix type="matrix" values="0 0 0 0 1 0 0 0 0 1 0 0 0 0 1 0 0 0 0.41 0"/>
<feBlend mode="normal" in2="BackgroundImageFix" result="effect1_dropShadow_86_5"/>
<feBlend mode="normal" in="SourceGraphic" in2="effect1_dropShadow_86_5" result="shape"/>
<feColorMatrix in="SourceAlpha" type="matrix" values="0 0 0 0 0 0 0 0 0 0 0 0 0 0 0 0 0 0 127 0" result="hardAlpha"/>
<feOffset dx="-3.47753" dy="2.31835"/>
<feGaussianBlur stdDeviation="1.73876"/>
<feComposite in2="hardAlpha" operator="arithmetic" k2="-1" k3="1"/>
<feColorMatrix type="matrix" values="0 0 0 0 0 0 0 0 0 0 0 0 0 0 0 0 0 0 0.25 0"/>
<feBlend mode="normal" in2="shape" result="effect2_innerShadow_86_5"/>
</filter>
<filter id="filter2_i_86_5" x="228.957" y="247.116" width="49.649" height="67.7523" filterUnits="userSpaceOnUse" color-interpolation-filters="sRGB">
<feFlood flood-opacity="0" result="BackgroundImageFix"/>
<feBlend mode="normal" in="SourceGraphic" in2="BackgroundImageFix" result="shape"/>
<feColorMatrix in="SourceAlpha" type="matrix" values="0 0 0 0 0 0 0 0 0 0 0 0 0 0 0 0 0 0 127 0" result="hardAlpha"/>
<feMorphology radius="0.99737" operator="erode" in="SourceAlpha" result="effect1_innerShadow_86_5"/>
<feOffset/>
<feGaussianBlur stdDeviation="0.498685"/>
<feComposite in2="hardAlpha" operator="arithmetic" k2="-1" k3="1"/>
<feColorMatrix type="matrix" values="0 0 0 0 0 0 0 0 0 0 0 0 0 0 0 0 0 0 0.25 0"/>
<feBlend mode="normal" in2="shape" result="effect1_innerShadow_86_5"/>
</filter>
<filter id="filter3_di_86_5" x="231.326" y="255.62" width="41.6439" height="53.1034" filterUnits="userSpaceOnUse" color-interpolation-filters="sRGB">
<feFlood flood-opacity="0" result="BackgroundImageFix"/>
<feColorMatrix in="SourceAlpha" type="matrix" values="0 0 0 0 0 0 0 0 0 0 0 0 0 0 0 0 0 0 127 0" result="hardAlpha"/>
<feOffset dy="0.543361"/>
<feGaussianBlur stdDeviation="0.40752"/>
<feColorMatrix type="matrix" values="0 0 0 0 1 0 0 0 0 1 0 0 0 0 1 0 0 0 0.41 0"/>
<feBlend mode="normal" in2="BackgroundImageFix" result="effect1_dropShadow_86_5"/>
<feBlend mode="normal" in="SourceGraphic" in2="effect1_dropShadow_86_5" result="shape"/>
<feColorMatrix in="SourceAlpha" type="matrix" values="0 0 0 0 0 0 0 0 0 0 0 0 0 0 0 0 0 0 127 0" result="hardAlpha"/>
<feOffset dx="-4.0752" dy="2.7168"/>
<feGaussianBlur stdDeviation="2.0376"/>
<feComposite in2="hardAlpha" operator="arithmetic" k2="-1" k3="1"/>
<feColorMatrix type="matrix" values="0 0 0 0 0 0 0 0 0 0 0 0 0 0 0 0 0 0 0.25 0"/>
<feBlend mode="normal" in2="shape" result="effect2_innerShadow_86_5"/>
</filter>
<filter id="filter4_i_86_5" x="25.8396" y="157.76" width="41.6676" height="62.2408" filterUnits="userSpaceOnUse" color-interpolation-filters="sRGB">
<feFlood flood-opacity="0" result="BackgroundImageFix"/>
<feBlend mode="normal" in="SourceGraphic" in2="BackgroundImageFix" result="shape"/>
<feColorMatrix in="SourceAlpha" type="matrix" values="0 0 0 0 0 0 0 0 0 0 0 0 0 0 0 0 0 0 127 0" result="hardAlpha"/>
<feMorphology radius="0.991468" operator="erode" in="SourceAlpha" result="effect1_innerShadow_86_5"/>
<feOffset/>
<feGaussianBlur stdDeviation="0.495734"/>
<feComposite in2="hardAlpha" operator="arithmetic" k2="-1" k3="1"/>
<feColorMatrix type="matrix" values="0 0 0 0 0 0 0 0 0 0 0 0 0 0 0 0 0 0 0.25 0"/>
<feBlend mode="normal" in2="shape" result="effect1_innerShadow_86_5"/>
</filter>
<filter id="filter5_di_86_5" x="26.3659" y="162.819" width="38.1962" height="53.9051" filterUnits="userSpaceOnUse" color-interpolation-filters="sRGB">
<feFlood flood-opacity="0" result="BackgroundImageFix"/>
<feColorMatrix in="SourceAlpha" type="matrix" values="0 0 0 0 0 0 0 0 0 0 0 0 0 0 0 0 0 0 127 0" result="hardAlpha"/>
<feOffset dy="0.396587"/>
<feGaussianBlur stdDeviation="0.29744"/>
<feColorMatrix type="matrix" values="0 0 0 0 1 0 0 0 0 1 0 0 0 0 1 0 0 0 0.41 0"/>
<feBlend mode="normal" in2="BackgroundImageFix" result="effect1_dropShadow_86_5"/>
<feBlend mode="normal" in="SourceGraphic" in2="effect1_dropShadow_86_5" result="shape"/>
<feColorMatrix in="SourceAlpha" type="matrix" values="0 0 0 0 0 0 0 0 0 0 0 0 0 0 0 0 0 0 127 0" result="hardAlpha"/>
<feOffset dx="-2.97441" dy="1.98294"/>
<feGaussianBlur stdDeviation="1.4872"/>
<feComposite in2="hardAlpha" operator="arithmetic" k2="-1" k3="1"/>
<feColorMatrix type="matrix" values="0 0 0 0 0 0 0 0 0 0 0 0 0 0 0 0 0 0 0.25 0"/>
<feBlend mode="normal" in2="shape" result="effect2_innerShadow_86_5"/>
</filter>
<filter id="filter6_i_86_5" x="26.9818" y="159.68" width="39.2992" height="60.0435" filterUnits="userSpaceOnUse" color-interpolation-filters="sRGB">
<feFlood flood-opacity="0" result="BackgroundImageFix"/>
<feBlend mode="normal" in="SourceGraphic" in2="BackgroundImageFix" result="shape"/>
<feColorMatrix in="SourceAlpha" type="matrix" values="0 0 0 0 0 0 0 0 0 0 0 0 0 0 0 0 0 0 127 0" result="hardAlpha"/>
<feMorphology radius="0.881506" operator="erode" in="SourceAlpha" result="effect1_innerShadow_86_5"/>
<feOffset/>
<feGaussianBlur stdDeviation="0.440753"/>
<feComposite in2="hardAlpha" operator="arithmetic" k2="-1" k3="1"/>
<feColorMatrix type="matrix" values="0 0 0 0 0 0 0 0 0 0 0 0 0 0 0 0 0 0 0.25 0"/>
<feBlend mode="normal" in2="shape" result="effect1_innerShadow_86_5"/>
</filter>
<filter id="filter7_i_86_5" x="26.9818" y="159.68" width="39.2992" height="60.0435" filterUnits="userSpaceOnUse" color-interpolation-filters="sRGB">
<feFlood flood-opacity="0" result="BackgroundImageFix"/>
<feBlend mode="normal" in="SourceGraphic" in2="BackgroundImageFix" result="shape"/>
<feColorMatrix in="SourceAlpha" type="matrix" values="0 0 0 0 0 0 0 0 0 0 0 0 0 0 0 0 0 0 127 0" result="hardAlpha"/>
<feMorphology radius="0.99737" operator="erode" in="SourceAlpha" result="effect1_innerShadow_86_5"/>
<feOffset/>
<feGaussianBlur stdDeviation="0.498685"/>
<feComposite in2="hardAlpha" operator="arithmetic" k2="-1" k3="1"/>
<feColorMatrix type="matrix" values="0 0 0 0 0 0 0 0 0 0 0 0 0 0 0 0 0 0 0.25 0"/>
<feBlend mode="normal" in2="shape" result="effect1_innerShadow_86_5"/>
</filter>
<filter id="filter8_di_86_5" x="27.5342" y="167.134" width="33.895" height="47.0321" filterUnits="userSpaceOnUse" color-interpolation-filters="sRGB">
<feFlood flood-opacity="0" result="BackgroundImageFix"/>
<feColorMatrix in="SourceAlpha" type="matrix" values="0 0 0 0 0 0 0 0 0 0 0 0 0 0 0 0 0 0 127 0" result="hardAlpha"/>
<feOffset dy="0.543361"/>
<feGaussianBlur stdDeviation="0.40752"/>
<feColorMatrix type="matrix" values="0 0 0 0 1 0 0 0 0 1 0 0 0 0 1 0 0 0 0.41 0"/>
<feBlend mode="normal" in2="BackgroundImageFix" result="effect1_dropShadow_86_5"/>
<feBlend mode="normal" in="SourceGraphic" in2="effect1_dropShadow_86_5" result="shape"/>
<feColorMatrix in="SourceAlpha" type="matrix" values="0 0 0 0 0 0 0 0 0 0 0 0 0 0 0 0 0 0 127 0" result="hardAlpha"/>
<feOffset dx="-4.0752" dy="2.7168"/>
<feGaussianBlur stdDeviation="2.0376"/>
<feComposite in2="hardAlpha" operator="arithmetic" k2="-1" k3="1"/>
<feColorMatrix type="matrix" values="0 0 0 0 0 0 0 0 0 0 0 0 0 0 0 0 0 0 0.25 0"/>
<feBlend mode="normal" in2="shape" result="effect2_innerShadow_86_5"/>
</filter>
<filter id="filter9_ii_86_5" x="2.72729" y="-5.13876" width="487.102" height="326.969" filterUnits="userSpaceOnUse" color-interpolation-filters="sRGB">
<feFlood flood-opacity="0" result="BackgroundImageFix"/>
<feBlend mode="normal" in="SourceGraphic" in2="BackgroundImageFix" result="shape"/>
<feColorMatrix in="SourceAlpha" type="matrix" values="0 0 0 0 0 0 0 0 0 0 0 0 0 0 0 0 0 0 127 0" result="hardAlpha"/>
<feOffset dx="8.15041" dy="-10.8672"/>
<feGaussianBlur stdDeviation="32.6016"/>
<feComposite in2="hardAlpha" operator="arithmetic" k2="-1" k3="1"/>
<feColorMatrix type="matrix" values="0 0 0 0 0 0 0 0 0 0 0 0 0 0 0 0 0 0 0.07 0"/>
<feBlend mode="normal" in2="shape" result="effect1_innerShadow_86_5"/>
<feColorMatrix in="SourceAlpha" type="matrix" values="0 0 0 0 0 0 0 0 0 0 0 0 0 0 0 0 0 0 127 0" result="hardAlpha"/>
<feOffset dy="-1.3584"/>
<feGaussianBlur stdDeviation="2.7168"/>
<feComposite in2="hardAlpha" operator="arithmetic" k2="-1" k3="1"/>
<feColorMatrix type="matrix" values="0 0 0 0 0 0 0 0 0 0 0 0 0 0 0 0 0 0 0.25 0"/>
<feBlend mode="normal" in2="effect1_innerShadow_86_5" result="effect2_innerShadow_86_5"/>
</filter>
<filter id="filter10_ddi_86_5" x="220.1" y="69.6726" width="174.062" height="117.493" filterUnits="userSpaceOnUse" color-interpolation-filters="sRGB">
<feFlood flood-opacity="0" result="BackgroundImageFix"/>
<feColorMatrix in="SourceAlpha" type="matrix" values="0 0 0 0 0 0 0 0 0 0 0 0 0 0 0 0 0 0 127 0" result="hardAlpha"/>
<feOffset dx="-2.31835" dy="1.15918"/>
<feGaussianBlur stdDeviation="1.15918"/>
<feColorMatrix type="matrix" values="0 0 0 0 1 0 0 0 0 1 0 0 0 0 1 0 0 0 0.28 0"/>
<feBlend mode="normal" in2="BackgroundImageFix" result="effect1_dropShadow_86_5"/>
<feColorMatrix in="SourceAlpha" type="matrix" values="0 0 0 0 0 0 0 0 0 0 0 0 0 0 0 0 0 0 127 0" result="hardAlpha"/>
<feOffset dy="-1.15918"/>
<feGaussianBlur stdDeviation="1.15918"/>
<feColorMatrix type="matrix" values="0 0 0 0 1 0 0 0 0 1 0 0 0 0 1 0 0 0 0.56 0"/>
<feBlend mode="normal" in2="effect1_dropShadow_86_5" result="effect2_dropShadow_86_5"/>
<feBlend mode="normal" in="SourceGraphic" in2="effect2_dropShadow_86_5" result="shape"/>
<feColorMatrix in="SourceAlpha" type="matrix" values="0 0 0 0 0 0 0 0 0 0 0 0 0 0 0 0 0 0 127 0" result="hardAlpha"/>
<feOffset dx="-1.15918" dy="3.47753"/>
<feGaussianBlur stdDeviation="1.73876"/>
<feComposite in2="hardAlpha" operator="arithmetic" k2="-1" k3="1"/>
<feColorMatrix type="matrix" values="0 0 0 0 0 0 0 0 0 0 0 0 0 0 0 0 0 0 0.75 0"/>
<feBlend mode="normal" in2="shape" result="effect3_innerShadow_86_5"/>
</filter>
<filter id="filter11_di_86_5" x="40.5788" y="66.699" width="200.861" height="120.098" filterUnits="userSpaceOnUse" color-interpolation-filters="sRGB">
<feFlood flood-opacity="0" result="BackgroundImageFix"/>
<feColorMatrix in="SourceAlpha" type="matrix" values="0 0 0 0 0 0 0 0 0 0 0 0 0 0 0 0 0 0 127 0" result="hardAlpha"/>
<feOffset dy="0.853413"/>
<feGaussianBlur stdDeviation="0.426707"/>
<feColorMatrix type="matrix" values="0 0 0 0 0.925374 0 0 0 0 0.925374 0 0 0 0 0.925374 0 0 0 0.37 0"/>
<feBlend mode="normal" in2="BackgroundImageFix" result="effect1_dropShadow_86_5"/>
<feBlend mode="normal" in="SourceGraphic" in2="effect1_dropShadow_86_5" result="shape"/>
<feColorMatrix in="SourceAlpha" type="matrix" values="0 0 0 0 0 0 0 0 0 0 0 0 0 0 0 0 0 0 127 0" result="hardAlpha"/>
<feOffset dx="-5.68972" dy="4.1185"/>
<feGaussianBlur stdDeviation="2.84486"/>
<feComposite in2="hardAlpha" operator="arithmetic" k2="-1" k3="1"/>
<feColorMatrix type="matrix" values="0 0 0 0 0 0 0 0 0 0 0 0 0 0 0 0 0 0 0.63 0"/>
<feBlend mode="normal" in2="shape" result="effect2_innerShadow_86_5"/>
</filter>
<filter id="filter12_f_86_5" x="182.189" y="148.547" width="272.999" height="135.992" filterUnits="userSpaceOnUse" color-interpolation-filters="sRGB">
<feFlood flood-opacity="0" result="BackgroundImageFix"/>
<feBlend mode="normal" in="SourceGraphic" in2="BackgroundImageFix" result="shape"/>
<feGaussianBlur stdDeviation="16.2285" result="effect1_foregroundBlur_86_5"/>
</filter>
<filter id="filter13_f_86_5" x="370.93" y="93.7171" width="132.228" height="138.48" filterUnits="userSpaceOnUse" color-interpolation-filters="sRGB">
<feFlood flood-opacity="0" result="BackgroundImageFix"/>
<feBlend mode="normal" in="SourceGraphic" in2="BackgroundImageFix" result="shape"/>
<feGaussianBlur stdDeviation="10.4326" result="effect1_foregroundBlur_86_5"/>
</filter>
<filter id="filter14_di_86_5" x="149.322" y="163.773" width="16.7825" height="13.2982" filterUnits="userSpaceOnUse" color-interpolation-filters="sRGB">
<feFlood flood-opacity="0" result="BackgroundImageFix"/>
<feColorMatrix in="SourceAlpha" type="matrix" values="0 0 0 0 0 0 0 0 0 0 0 0 0 0 0 0 0 0 127 0" result="hardAlpha"/>
<feOffset dy="-0.574926"/>
<feGaussianBlur stdDeviation="0.287463"/>
<feColorMatrix type="matrix" values="0 0 0 0 0.78755 0 0 0 0 0.78755 0 0 0 0 0.78755 0 0 0 0.19 0"/>
<feBlend mode="normal" in2="BackgroundImageFix" result="effect1_dropShadow_86_5"/>
<feBlend mode="normal" in="SourceGraphic" in2="effect1_dropShadow_86_5" result="shape"/>
<feColorMatrix in="SourceAlpha" type="matrix" values="0 0 0 0 0 0 0 0 0 0 0 0 0 0 0 0 0 0 127 0" result="hardAlpha"/>
<feOffset dy="2.87463"/>
<feGaussianBlur stdDeviation="1.43731"/>
<feComposite in2="hardAlpha" operator="arithmetic" k2="-1" k3="1"/>
<feColorMatrix type="matrix" values="0 0 0 0 0 0 0 0 0 0 0 0 0 0 0 0 0 0 0.74 0"/>
<feBlend mode="normal" in2="shape" result="effect2_innerShadow_86_5"/>
</filter>
<filter id="filter15_di_86_5" x="76.6837" y="134.528" width="16.7825" height="13.2982" filterUnits="userSpaceOnUse" color-interpolation-filters="sRGB">
<feFlood flood-opacity="0" result="BackgroundImageFix"/>
<feColorMatrix in="SourceAlpha" type="matrix" values="0 0 0 0 0 0 0 0 0 0 0 0 0 0 0 0 0 0 127 0" result="hardAlpha"/>
<feOffset dy="-0.574926"/>
<feGaussianBlur stdDeviation="0.287463"/>
<feColorMatrix type="matrix" values="0 0 0 0 0.78755 0 0 0 0 0.78755 0 0 0 0 0.78755 0 0 0 0.19 0"/>
<feBlend mode="normal" in2="BackgroundImageFix" result="effect1_dropShadow_86_5"/>
<feBlend mode="normal" in="SourceGraphic" in2="effect1_dropShadow_86_5" result="shape"/>
<feColorMatrix in="SourceAlpha" type="matrix" values="0 0 0 0 0 0 0 0 0 0 0 0 0 0 0 0 0 0 127 0" result="hardAlpha"/>
<feOffset dy="2.87463"/>
<feGaussianBlur stdDeviation="1.43731"/>
<feComposite in2="hardAlpha" operator="arithmetic" k2="-1" k3="1"/>
<feColorMatrix type="matrix" values="0 0 0 0 0 0 0 0 0 0 0 0 0 0 0 0 0 0 0.74 0"/>
<feBlend mode="normal" in2="shape" result="effect2_innerShadow_86_5"/>
</filter>
<filter id="filter16_f_86_5" x="314.495" y="139.863" width="197.85" height="147.505" filterUnits="userSpaceOnUse" color-interpolation-filters="sRGB">
<feFlood flood-opacity="0" result="BackgroundImageFix"/>
<feBlend mode="normal" in="SourceGraphic" in2="BackgroundImageFix" result="shape"/>
<feGaussianBlur stdDeviation="5.79588" result="effect1_foregroundBlur_86_5"/>
</filter>
<filter id="filter17_dii_86_5" x="293.881" y="177.4" width="189.981" height="94.5833" filterUnits="userSpaceOnUse" color-interpolation-filters="sRGB">
<feFlood flood-opacity="0" result="BackgroundImageFix"/>
<feColorMatrix in="SourceAlpha" type="matrix" values="0 0 0 0 0 0 0 0 0 0 0 0 0 0 0 0 0 0 127 0" result="hardAlpha"/>
<feOffset dy="0.654532"/>
<feGaussianBlur stdDeviation="1.40231"/>
<feColorMatrix type="matrix" values="0 0 0 0 0 0 0 0 0 0 0 0 0 0 0 0 0 0 0.63 0"/>
<feBlend mode="normal" in2="BackgroundImageFix" result="effect1_dropShadow_86_5"/>
<feBlend mode="normal" in="SourceGraphic" in2="effect1_dropShadow_86_5" result="shape"/>
<feColorMatrix in="SourceAlpha" type="matrix" values="0 0 0 0 0 0 0 0 0 0 0 0 0 0 0 0 0 0 127 0" result="hardAlpha"/>
<feOffset dy="0.654532"/>
<feGaussianBlur stdDeviation="0.654532"/>
<feComposite in2="hardAlpha" operator="arithmetic" k2="-1" k3="1"/>
<feColorMatrix type="matrix" values="0 0 0 0 0 0 0 0 0 0 0 0 0 0 0 0 0 0 0.25 0"/>
<feBlend mode="normal" in2="shape" result="effect2_innerShadow_86_5"/>
<feColorMatrix in="SourceAlpha" type="matrix" values="0 0 0 0 0 0 0 0 0 0 0 0 0 0 0 0 0 0 127 0" result="hardAlpha"/>
<feOffset dy="-0.654532"/>
<feGaussianBlur stdDeviation="0.654532"/>
<feComposite in2="hardAlpha" operator="arithmetic" k2="-1" k3="1"/>
<feColorMatrix type="matrix" values="0 0 0 0 0 0 0 0 0 0 0 0 0 0 0 0 0 0 0.25 0"/>
<feBlend mode="normal" in2="effect2_innerShadow_86_5" result="effect3_innerShadow_86_5"/>
</filter>
<filter id="filter18_d_86_5" x="322.027" y="236.409" width="58.0326" height="21.6167" filterUnits="userSpaceOnUse" color-interpolation-filters="sRGB">
<feFlood flood-opacity="0" result="BackgroundImageFix"/>
<feColorMatrix in="SourceAlpha" type="matrix" values="0 0 0 0 0 0 0 0 0 0 0 0 0 0 0 0 0 0 127 0" result="hardAlpha"/>
<feOffset dx="1.07317" dy="1.33308"/>
<feGaussianBlur stdDeviation="0.66654"/>
<feColorMatrix type="matrix" values="0 0 0 0 1 0 0 0 0 1 0 0 0 0 1 0 0 0 0.24 0"/>
<feBlend mode="normal" in2="BackgroundImageFix" result="effect1_dropShadow_86_5"/>
<feBlend mode="normal" in="SourceGraphic" in2="effect1_dropShadow_86_5" result="shape"/>
</filter>
<filter id="filter19_d_86_5" x="460.851" y="182.403" width="18.4193" height="21.7093" filterUnits="userSpaceOnUse" color-interpolation-filters="sRGB">
<feFlood flood-opacity="0" result="BackgroundImageFix"/>
<feColorMatrix in="SourceAlpha" type="matrix" values="0 0 0 0 0 0 0 0 0 0 0 0 0 0 0 0 0 0 127 0" result="hardAlpha"/>
<feOffset dx="1.07317" dy="1.33308"/>
<feGaussianBlur stdDeviation="0.66654"/>
<feColorMatrix type="matrix" values="0 0 0 0 1 0 0 0 0 1 0 0 0 0 1 0 0 0 0.24 0"/>
<feBlend mode="normal" in2="BackgroundImageFix" result="effect1_dropShadow_86_5"/>
<feBlend mode="normal" in="SourceGraphic" in2="effect1_dropShadow_86_5" result="shape"/>
</filter>
<linearGradient id="paint0_linear_86_5" x1="53.5182" y1="57.5914" x2="56.0755" y2="18.7589" gradientUnits="userSpaceOnUse">
<stop stop-color="#3F3F3F"/>
<stop offset="1" stop-color="#5C5C5C"/>
</linearGradient>
<linearGradient id="paint1_linear_86_5" x1="50.5184" y1="50.0361" x2="36.489" y2="-16.994" gradientUnits="userSpaceOnUse">
<stop stop-color="#3F3F3F"/>
<stop offset="1" stop-color="#777676"/>
</linearGradient>
<linearGradient id="paint2_linear_86_5" x1="45.609" y1="49.4453" x2="47.8207" y2="16.1077" gradientUnits="userSpaceOnUse">
<stop stop-color="#3F3F3F"/>
<stop offset="1" stop-color="#5C5C5C"/>
</linearGradient>
<linearGradient id="paint3_linear_86_5" x1="42.7018" y1="43.4364" x2="30.2227" y2="-14.6191" gradientUnits="userSpaceOnUse">
<stop stop-color="#3F3F3F"/>
<stop offset="1" stop-color="#777676"/>
</linearGradient>
<linearGradient id="paint4_linear_86_5" x1="314.297" y1="321.575" x2="466.431" y2="91.2133" gradientUnits="userSpaceOnUse">
<stop stop-color="#262626"/>
<stop offset="0.628054" stop-color="#545454"/>
<stop offset="1" stop-color="#A8A8A8"/>
</linearGradient>
<linearGradient id="paint5_linear_86_5" x1="297.465" y1="253.097" x2="187.13" y2="-3.55703" gradientUnits="userSpaceOnUse">
<stop stop-color="#CECBCB"/>
<stop offset="1" stop-color="white"/>
</linearGradient>
<linearGradient id="paint6_linear_86_5" x1="314.15" y1="-8.21648" x2="191.105" y2="118.081" gradientUnits="userSpaceOnUse">
<stop stop-color="#E8EAE9"/>
<stop offset="0.498386" stop-color="#707072"/>
<stop offset="1" stop-color="#2F3032"/>
</linearGradient>
<linearGradient id="paint7_linear_86_5" x1="398.054" y1="434.659" x2="327.68" y2="51.86" gradientUnits="userSpaceOnUse">
<stop stop-color="#E8EAE9"/>
<stop offset="0.498386" stop-color="#707072"/>
<stop offset="1" stop-color="#2F3032"/>
</linearGradient>
<linearGradient id="paint8_linear_86_5" x1="312.513" y1="257.067" x2="326.722" y2="211.169" gradientUnits="userSpaceOnUse">
<stop stop-color="#ECEAEA"/>
<stop offset="1" stop-color="white" stop-opacity="0"/>
</linearGradient>
<linearGradient id="paint9_linear_86_5" x1="496.854" y1="174.04" x2="436.352" y2="197.317" gradientUnits="userSpaceOnUse">
<stop stop-color="#ECEAEA"/>
<stop offset="1" stop-color="white" stop-opacity="0"/>
</linearGradient>
<linearGradient id="paint10_linear_86_5" x1="415.273" y1="236.357" x2="404.884" y2="215.752" gradientUnits="userSpaceOnUse">
<stop stop-color="#4B4B4B"/>
<stop offset="0.899322" stop-opacity="0"/>
</linearGradient>
</defs>
</svg>
